<svg width="277" height="278" viewBox="0 0 277 278" fill="none" xmlns="http://www.w3.org/2000/svg">
<path d="M100 181C109.655 179.54 116.261 180.758 124.5 186C127.537 187.932 131.686 191.122 134 194.5C138.544 201.135 140 208.5 140 208.5C140 208.5 138.956 199.572 136.5 194.5C133.895 189.12 131.938 187.504 127.5 183.5C124.803 181.067 121.449 178.62 118.5 176.5C114.629 173.718 109.5 170 109.5 170C109.5 170 109.515 173.27 110.5 175C111.527 176.804 114.5 178.5 114.5 178.5C114.5 178.5 107.218 177.206 102.5 177C97.6192 176.787 94.6289 175.938 90 177.5C85.2255 179.111 84.551 179.925 81 183.5C78.5501 185.967 77.3431 189.328 75 190.5C72.6569 191.672 70.3431 193.828 68 195C68 195 72.7968 194.47 77 193C85.7392 189.944 90.8461 182.384 100 181Z" fill="#966F30"/>
<path d="M180 181C170.345 179.54 163.739 180.758 155.5 186C152.463 187.932 148.314 191.122 146 194.5C141.456 201.135 140 208.5 140 208.5C140 208.5 141.044 199.572 143.5 194.5C146.105 189.12 148.062 187.504 152.5 183.5C155.197 181.067 158.551 178.62 161.5 176.5C165.371 173.718 170.5 170 170.5 170C170.5 170 170.485 173.27 169.5 175C168.473 176.804 165.5 178.5 165.5 178.5C165.5 178.5 172.782 177.206 177.5 177C182.381 176.787 185.371 175.938 190 177.5C194.775 179.111 195.449 179.925 199 183.5C201.45 185.967 202.657 189.328 205 190.5C207.343 191.672 209.657 193.828 212 195C212 195 207.203 194.47 203 193C194.261 189.944 189.154 182.384 180 181Z" fill="#966F30"/>
<path d="M138 174.5C141.101 185.595 140 208 140 208C140 208 139.865 186.201 137 175C134.978 167.095 130 159 130 159C130 159 135.696 166.258 138 174.5Z" fill="#926E2D"/>
<path d="M142.149 174.5C139.106 185.595 140.186 208 140.186 208C140.186 208 140.319 186.201 143.13 175C145.114 167.095 150 159 150 159C150 159 144.41 166.258 142.149 174.5Z" fill="#926E2D"/>
<path d="M30.68 230.2C30.68 229.996 30.7707 229.883 30.952 229.86C31.156 229.815 31.6433 229.792 32.414 229.792H35.372C35.9387 229.792 36.9813 229.769 38.5 229.724C40.0187 229.679 41.186 229.656 42.002 229.656C43.566 229.656 45.13 229.894 46.694 230.37C48.258 230.846 49.6973 231.537 51.012 232.444C52.3267 233.328 53.392 234.495 54.208 235.946C55.024 237.374 55.432 238.972 55.432 240.74C55.432 242.327 55.3187 243.709 55.092 244.888C54.888 246.044 54.5367 247.053 54.038 247.914C53.5393 248.753 53.0407 249.444 52.542 249.988C52.0433 250.509 51.3633 251.133 50.502 251.858C49.822 252.402 48.836 252.912 47.544 253.388C46.252 253.864 44.926 254.102 43.566 254.102C43.43 254.102 42.274 254.068 40.098 254C37.922 253.955 36.358 253.932 35.406 253.932C34.6127 253.932 33.876 253.955 33.196 254C32.516 254.068 32.1193 254.102 32.006 254.102C31.462 254.102 31.19 253.955 31.19 253.66C31.19 253.479 31.224 253.354 31.292 253.286C31.3827 253.195 31.5527 253.116 31.802 253.048C32.074 252.98 32.2667 252.923 32.38 252.878C32.7427 252.719 33.0713 252.425 33.366 251.994C33.6833 251.541 33.842 251.099 33.842 250.668C33.842 249.399 33.842 247.778 33.842 245.806C33.8647 243.834 33.876 242.383 33.876 241.454C33.876 240.638 33.8647 239.369 33.842 237.646C33.842 235.901 33.842 234.291 33.842 232.818C33.842 232.433 33.6493 232.047 33.264 231.662C32.9013 231.254 32.4933 231.039 32.04 231.016C31.7227 230.993 31.4847 230.971 31.326 230.948C31.19 230.925 31.0427 230.857 30.884 230.744C30.748 230.608 30.68 230.427 30.68 230.2ZM36.698 249.206C36.698 249.637 36.698 249.988 36.698 250.26C36.7207 250.532 36.766 250.781 36.834 251.008C36.9247 251.235 36.9927 251.393 37.038 251.484C37.0833 251.575 37.2193 251.677 37.446 251.79C37.6727 251.903 37.8427 251.983 37.956 252.028C38.092 252.051 38.364 252.119 38.772 252.232C39.18 252.345 39.52 252.436 39.792 252.504C40.5853 252.731 41.4127 252.844 42.274 252.844H42.954C44.4953 252.844 45.81 252.629 46.898 252.198C47.986 251.745 49.0287 251.042 50.026 250.09C51.7033 248.481 52.542 245.874 52.542 242.27C52.542 240.457 52.1793 238.813 51.454 237.34C50.7513 235.867 49.822 234.699 48.666 233.838C47.51 232.954 46.2633 232.285 44.926 231.832C43.5887 231.356 42.24 231.118 40.88 231.118C40.268 231.118 39.8147 231.118 39.52 231.118C39.248 231.118 38.9193 231.152 38.534 231.22C38.1713 231.265 37.922 231.311 37.786 231.356C37.6727 231.379 37.5253 231.492 37.344 231.696C37.1627 231.877 37.0493 232.036 37.004 232.172C36.9813 232.308 36.936 232.58 36.868 232.988C36.8227 233.373 36.8 233.713 36.8 234.008C36.8 234.303 36.8 234.779 36.8 235.436C36.8 235.935 36.7887 237.113 36.766 238.972C36.7433 240.808 36.732 241.805 36.732 241.964C36.732 243.324 36.7207 244.797 36.698 246.384C36.698 247.971 36.698 248.911 36.698 249.206ZM65.4277 230.234C65.4277 229.917 65.7451 229.758 66.3797 229.758C66.4704 229.758 66.6177 229.769 66.8217 229.792C67.0257 229.815 67.1844 229.826 67.2977 229.826C67.3657 229.826 68.4311 229.86 70.4937 229.928C72.5564 229.973 74.2564 229.996 75.5937 229.996C76.0697 229.996 77.2371 229.973 79.0957 229.928C80.9771 229.883 82.0764 229.86 82.3937 229.86C82.8244 229.86 83.0397 230.121 83.0397 230.642C83.0397 230.778 82.9717 231.231 82.8357 232.002C82.6997 232.75 82.6317 233.453 82.6317 234.11C82.6317 234.314 82.5751 234.495 82.4617 234.654C82.3484 234.79 82.2237 234.858 82.0877 234.858C81.7477 234.858 81.5777 234.62 81.5777 234.144C81.5777 233.532 81.3851 232.977 80.9997 232.478C80.6144 231.979 80.1384 231.719 79.5717 231.696C77.5317 231.537 75.9677 231.458 74.8797 231.458H73.9957C72.8171 231.458 72.1257 231.549 71.9217 231.73C71.7404 231.889 71.6271 232.489 71.5817 233.532C71.4911 235.164 71.4457 237.057 71.4457 239.21C71.4457 240.343 71.6611 240.921 72.0917 240.944H72.9417H74.3697H75.4237C76.7837 240.944 77.6904 240.899 78.1437 240.808C78.5971 240.717 79.0051 240.547 79.3677 240.298C79.7984 240.003 80.0591 239.584 80.1497 239.04C80.2177 238.655 80.3764 238.462 80.6257 238.462C80.8297 238.462 80.9544 238.496 80.9997 238.564C81.0451 238.632 81.0677 238.779 81.0677 239.006C81.0677 239.165 81.0224 239.686 80.9317 240.57C80.8411 241.454 80.7957 242.123 80.7957 242.576C80.7957 243.007 80.8071 243.415 80.8297 243.8C80.8751 244.185 80.8977 244.469 80.8977 244.65C80.8977 245.217 80.8184 245.5 80.6597 245.5C80.3197 245.5 80.0704 245.228 79.9117 244.684C79.5944 243.732 79.3111 243.177 79.0617 243.018C78.5857 242.701 77.4977 242.542 75.7977 242.542C75.1177 242.542 74.5624 242.542 74.1317 242.542C73.7237 242.542 73.4517 242.542 73.3157 242.542C73.2024 242.519 73.1004 242.508 73.0097 242.508C72.9417 242.508 72.8737 242.508 72.8057 242.508C71.8764 242.508 71.4117 242.723 71.4117 243.154C71.4117 243.811 71.4004 244.639 71.3777 245.636C71.3551 246.611 71.3437 247.415 71.3437 248.05V249.41C71.3437 251.042 71.6157 251.937 72.1597 252.096C72.7264 252.277 73.2137 252.368 73.6217 252.368C75.3217 252.368 76.8064 252.289 78.0757 252.13C79.3677 251.971 80.3311 251.779 80.9657 251.552C81.6231 251.303 82.1671 251.042 82.5977 250.77C83.0284 250.475 83.3004 250.215 83.4137 249.988C83.5497 249.739 83.6744 249.535 83.7877 249.376C83.9237 249.217 84.0597 249.138 84.1957 249.138C84.4677 249.138 84.6037 249.331 84.6037 249.716C84.6037 250.691 84.1164 251.677 83.1417 252.674C82.1671 253.671 81.3171 254.17 80.5917 254.17C78.9597 254.17 77.1124 254.113 75.0497 254C73.0097 253.887 71.7404 253.83 71.2417 253.83C70.6071 253.83 69.8137 253.887 68.8617 254C67.9097 254.091 67.1617 254.136 66.6177 254.136C66.1417 254.136 65.9037 254.023 65.9037 253.796C65.9037 253.592 65.9037 253.456 65.9037 253.388C65.9037 253.32 65.9377 253.263 66.0057 253.218C66.0737 253.173 66.1417 253.15 66.2097 253.15C66.3004 253.127 66.4477 253.082 66.6517 253.014C66.8784 252.946 67.1164 252.855 67.3657 252.742C67.9097 252.47 68.2611 251.937 68.4197 251.144C68.6011 250.351 68.6917 248.685 68.6917 246.146V241.93C68.6917 241.318 68.7031 240.366 68.7257 239.074C68.7711 237.782 68.7937 236.773 68.7937 236.048C68.7937 235.436 68.7711 234.405 68.7257 232.954C68.7031 232.297 68.4197 231.787 67.8757 231.424C67.3317 231.061 66.6971 230.869 65.9717 230.846C65.6091 230.846 65.4277 230.642 65.4277 230.234ZM93.7673 230.37C93.7673 230.03 93.9713 229.86 94.3793 229.86C94.5153 229.86 94.8213 229.883 95.2973 229.928C95.7959 229.973 96.0906 229.996 96.1813 229.996C96.5213 229.996 96.9859 229.985 97.5753 229.962C98.1646 229.939 98.5499 229.928 98.7313 229.928C99.1619 229.928 99.4339 230.087 99.5473 230.404C99.8193 230.993 100.307 232.059 101.009 233.6C101.712 235.119 102.267 236.331 102.675 237.238C103.106 238.145 103.65 239.301 104.307 240.706C104.965 242.111 105.497 243.256 105.905 244.14C106.313 245.001 106.733 245.874 107.163 246.758C107.617 247.642 107.957 248.299 108.183 248.73C108.433 249.138 108.591 249.342 108.659 249.342C108.727 249.342 108.795 249.308 108.863 249.24C108.954 249.149 109.033 249.036 109.101 248.9C109.192 248.764 109.26 248.628 109.305 248.492C109.373 248.356 109.453 248.186 109.543 247.982C109.657 247.755 109.736 247.585 109.781 247.472L114.167 238.428C114.666 237.408 115.108 236.49 115.493 235.674C115.879 234.858 116.185 234.201 116.411 233.702C116.638 233.203 116.831 232.773 116.989 232.41C117.148 232.047 117.261 231.775 117.329 231.594C117.42 231.413 117.477 231.277 117.499 231.186C117.545 231.073 117.579 230.993 117.601 230.948C117.624 230.88 117.647 230.823 117.669 230.778C117.692 230.733 117.726 230.631 117.771 230.472C117.839 230.313 117.896 230.211 117.941 230.166C118.009 230.098 118.123 230.03 118.281 229.962C118.463 229.894 118.689 229.86 118.961 229.86C119.392 229.86 119.789 229.871 120.151 229.894C120.537 229.917 121.115 229.928 121.885 229.928C122.271 229.928 122.463 230.075 122.463 230.37C122.463 230.597 122.384 230.767 122.225 230.88C122.089 230.971 121.795 231.05 121.341 231.118C120.775 231.186 120.378 231.469 120.151 231.968C119.925 232.467 119.811 233.419 119.811 234.824C119.811 237.884 119.879 240.661 120.015 243.154C120.151 245.625 120.219 247.177 120.219 247.812C120.219 250.079 120.401 251.529 120.763 252.164C121.126 252.776 121.885 253.082 123.041 253.082C123.2 253.082 123.336 253.139 123.449 253.252C123.585 253.365 123.653 253.467 123.653 253.558C123.653 253.694 123.642 253.796 123.619 253.864C123.597 253.932 123.551 253.989 123.483 254.034C123.415 254.079 123.347 254.102 123.279 254.102C123.211 254.102 123.087 254.102 122.905 254.102C122.225 254.102 121.557 254.079 120.899 254.034C120.242 253.989 119.755 253.966 119.437 253.966C118.803 253.966 118.145 253.989 117.465 254.034C116.785 254.102 116.264 254.136 115.901 254.136C115.493 254.136 115.289 253.977 115.289 253.66C115.289 253.456 115.38 253.309 115.561 253.218C115.743 253.127 115.947 253.071 116.173 253.048C116.423 253.025 116.672 252.889 116.921 252.64C117.193 252.368 117.386 251.971 117.499 251.45C117.59 250.997 117.635 250.271 117.635 249.274C117.635 248.549 117.613 247.676 117.567 246.656C117.545 245.636 117.511 244.65 117.465 243.698C117.42 242.723 117.375 241.817 117.329 240.978C117.284 240.117 117.25 239.414 117.227 238.87L117.159 238.054C117.159 237.079 117.057 236.592 116.853 236.592C116.831 236.592 116.797 236.603 116.751 236.626C116.706 236.649 116.661 236.683 116.615 236.728C116.593 236.773 116.559 236.819 116.513 236.864C116.468 236.909 116.423 236.989 116.377 237.102C116.332 237.193 116.287 237.272 116.241 237.34C116.196 237.408 116.139 237.51 116.071 237.646C116.003 237.759 115.947 237.861 115.901 237.952C115.856 238.043 115.788 238.167 115.697 238.326C115.629 238.485 115.573 238.621 115.527 238.734L110.801 248.288C110.257 249.399 109.679 250.589 109.067 251.858C108.659 252.719 108.41 253.229 108.319 253.388C108.229 253.524 108.115 253.592 107.979 253.592C107.775 253.592 107.605 253.501 107.469 253.32C107.333 253.116 107.129 252.685 106.857 252.028C106.585 251.371 106.347 250.827 106.143 250.396C101.995 241.964 99.8646 237.669 99.7513 237.51C99.6833 237.419 99.6153 237.374 99.5473 237.374C99.3659 237.374 99.2753 237.827 99.2753 238.734C99.2526 240.502 99.1959 242.247 99.1053 243.97C99.0146 245.693 98.9693 246.939 98.9693 247.71V249.24C98.9693 249.829 98.9806 250.283 99.0033 250.6C99.0486 250.917 99.1393 251.291 99.2753 251.722C99.4339 252.13 99.7059 252.447 100.091 252.674C100.477 252.901 100.975 253.048 101.587 253.116C101.701 253.116 101.803 253.161 101.893 253.252C102.007 253.32 102.063 253.399 102.063 253.49C102.063 253.739 102.029 253.909 101.961 254C101.893 254.068 101.757 254.102 101.553 254.102C101.1 254.102 100.42 254.079 99.5133 254.034C98.6066 253.989 98.1079 253.966 98.0173 253.966C97.9719 253.966 97.6433 253.977 97.0313 254C96.4193 254.045 95.8186 254.068 95.2293 254.068C95.0479 254.068 94.9119 254.057 94.8213 254.034C94.7533 254.011 94.6853 253.966 94.6173 253.898C94.5493 253.807 94.5153 253.683 94.5153 253.524C94.5153 253.343 94.6173 253.218 94.8213 253.15C95.0253 253.082 95.2519 253.048 95.5013 253.048C95.7733 253.025 96.0679 252.844 96.3853 252.504C96.7026 252.141 96.9406 251.62 97.0993 250.94C97.2126 250.441 97.3486 248.469 97.5073 245.024C97.6659 241.579 97.7453 239.029 97.7453 237.374C97.7453 235.107 97.5186 233.543 97.0653 232.682C96.6346 231.821 95.6826 231.22 94.2093 230.88C93.9146 230.812 93.7673 230.642 93.7673 230.37ZM132.831 230.234C132.831 229.917 133.149 229.758 133.783 229.758C133.874 229.758 134.021 229.769 134.225 229.792C134.429 229.815 134.588 229.826 134.701 229.826C134.769 229.826 135.835 229.86 137.897 229.928C139.96 229.973 141.66 229.996 142.997 229.996C143.473 229.996 144.641 229.973 146.499 229.928C148.381 229.883 149.48 229.86 149.797 229.86C150.228 229.86 150.443 230.121 150.443 230.642C150.443 230.778 150.375 231.231 150.239 232.002C150.103 232.75 150.035 233.453 150.035 234.11C150.035 234.314 149.979 234.495 149.865 234.654C149.752 234.79 149.627 234.858 149.491 234.858C149.151 234.858 148.981 234.62 148.981 234.144C148.981 233.532 148.789 232.977 148.403 232.478C148.018 231.979 147.542 231.719 146.975 231.696C144.935 231.537 143.371 231.458 142.283 231.458H141.399C140.221 231.458 139.529 231.549 139.325 231.73C139.144 231.889 139.031 232.489 138.985 233.532C138.895 235.164 138.849 237.057 138.849 239.21C138.849 240.343 139.065 240.921 139.495 240.944H140.345H141.773H142.827C144.187 240.944 145.094 240.899 145.547 240.808C146.001 240.717 146.409 240.547 146.771 240.298C147.202 240.003 147.463 239.584 147.553 239.04C147.621 238.655 147.78 238.462 148.029 238.462C148.233 238.462 148.358 238.496 148.403 238.564C148.449 238.632 148.471 238.779 148.471 239.006C148.471 239.165 148.426 239.686 148.335 240.57C148.245 241.454 148.199 242.123 148.199 242.576C148.199 243.007 148.211 243.415 148.233 243.8C148.279 244.185 148.301 244.469 148.301 244.65C148.301 245.217 148.222 245.5 148.063 245.5C147.723 245.5 147.474 245.228 147.315 244.684C146.998 243.732 146.715 243.177 146.465 243.018C145.989 242.701 144.901 242.542 143.201 242.542C142.521 242.542 141.966 242.542 141.535 242.542C141.127 242.542 140.855 242.542 140.719 242.542C140.606 242.519 140.504 242.508 140.413 242.508C140.345 242.508 140.277 242.508 140.209 242.508C139.28 242.508 138.815 242.723 138.815 243.154C138.815 243.811 138.804 244.639 138.781 245.636C138.759 246.611 138.747 247.415 138.747 248.05V249.41C138.747 251.042 139.019 251.937 139.563 252.096C140.13 252.277 140.617 252.368 141.025 252.368C142.725 252.368 144.21 252.289 145.479 252.13C146.771 251.971 147.735 251.779 148.369 251.552C149.027 251.303 149.571 251.042 150.001 250.77C150.432 250.475 150.704 250.215 150.817 249.988C150.953 249.739 151.078 249.535 151.191 249.376C151.327 249.217 151.463 249.138 151.599 249.138C151.871 249.138 152.007 249.331 152.007 249.716C152.007 250.691 151.52 251.677 150.545 252.674C149.571 253.671 148.721 254.17 147.995 254.17C146.363 254.17 144.516 254.113 142.453 254C140.413 253.887 139.144 253.83 138.645 253.83C138.011 253.83 137.217 253.887 136.265 254C135.313 254.091 134.565 254.136 134.021 254.136C133.545 254.136 133.307 254.023 133.307 253.796C133.307 253.592 133.307 253.456 133.307 253.388C133.307 253.32 133.341 253.263 133.409 253.218C133.477 253.173 133.545 253.15 133.613 253.15C133.704 253.127 133.851 253.082 134.055 253.014C134.282 252.946 134.52 252.855 134.769 252.742C135.313 252.47 135.665 251.937 135.823 251.144C136.005 250.351 136.095 248.685 136.095 246.146V241.93C136.095 241.318 136.107 240.366 136.129 239.074C136.175 237.782 136.197 236.773 136.197 236.048C136.197 235.436 136.175 234.405 136.129 232.954C136.107 232.297 135.823 231.787 135.279 231.424C134.735 231.061 134.101 230.869 133.375 230.846C133.013 230.846 132.831 230.642 132.831 230.234ZM161.171 234.28C161.171 233.373 161.284 232.206 161.511 230.778C161.511 230.733 161.511 230.653 161.511 230.54C161.534 230.427 161.545 230.359 161.545 230.336C161.568 230.291 161.579 230.234 161.579 230.166C161.602 230.075 161.624 230.019 161.647 229.996C161.67 229.951 161.692 229.905 161.715 229.86C161.76 229.792 161.806 229.747 161.851 229.724C161.896 229.701 161.953 229.679 162.021 229.656C162.089 229.633 162.168 229.622 162.259 229.622C162.35 229.599 162.452 229.588 162.565 229.588C162.928 229.588 163.88 229.633 165.421 229.724C166.985 229.815 169.229 229.86 172.153 229.86C177.14 229.86 180.63 229.803 182.625 229.69C182.648 229.69 182.682 229.69 182.727 229.69C182.795 229.667 182.84 229.656 182.863 229.656C183.112 229.656 183.282 229.724 183.373 229.86C183.464 229.996 183.509 230.121 183.509 230.234C183.509 230.393 183.543 230.869 183.611 231.662C183.679 232.455 183.713 232.897 183.713 232.988C183.713 233.555 183.679 233.917 183.611 234.076C183.543 234.212 183.396 234.28 183.169 234.28C182.988 234.28 182.863 234.144 182.795 233.872C182.614 233.215 182.455 232.773 182.319 232.546C182.183 232.297 181.888 232.081 181.435 231.9C180.982 231.719 180.29 231.628 179.361 231.628H174.941C174.397 231.628 174.057 231.741 173.921 231.968C173.808 232.172 173.751 232.784 173.751 233.804V235.47C173.751 238.507 173.728 241.182 173.683 243.494C173.66 245.806 173.649 247.279 173.649 247.914C173.649 248.231 173.638 248.639 173.615 249.138C173.615 249.614 173.615 249.943 173.615 250.124C173.615 251.099 173.774 251.745 174.091 252.062C174.386 252.334 174.714 252.549 175.077 252.708C175.44 252.844 175.746 252.923 175.995 252.946C176.267 252.969 176.494 253.025 176.675 253.116C176.856 253.207 176.947 253.354 176.947 253.558C176.947 253.807 176.89 253.966 176.777 254.034C176.664 254.102 176.448 254.136 176.131 254.136C175.859 254.136 175.258 254.091 174.329 254C173.4 253.909 172.742 253.864 172.357 253.864C172.085 253.864 171.53 253.909 170.691 254C169.875 254.068 169.274 254.102 168.889 254.102C168.05 254.102 167.631 253.921 167.631 253.558C167.631 253.331 167.699 253.184 167.835 253.116C167.971 253.025 168.232 252.957 168.617 252.912C169.025 252.844 169.286 252.799 169.399 252.776C170.17 252.595 170.6 252.141 170.691 251.416C170.918 249.421 171.031 245.137 171.031 238.564L170.997 232.478C170.997 232.047 170.872 231.787 170.623 231.696C170.374 231.583 169.637 231.526 168.413 231.526C166.826 231.526 165.625 231.571 164.809 231.662C164.016 231.753 163.551 231.843 163.415 231.934C163.279 232.002 163.12 232.149 162.939 232.376C162.735 232.648 162.565 232.954 162.429 233.294C162.316 233.611 162.236 233.883 162.191 234.11C162.168 234.314 162.1 234.495 161.987 234.654C161.896 234.79 161.749 234.858 161.545 234.858C161.296 234.858 161.171 234.665 161.171 234.28ZM192.897 230.234C192.897 229.917 193.215 229.758 193.849 229.758C193.94 229.758 194.087 229.769 194.291 229.792C194.495 229.815 194.654 229.826 194.767 229.826C194.835 229.826 195.901 229.86 197.963 229.928C200.026 229.973 201.726 229.996 203.063 229.996C203.539 229.996 204.707 229.973 206.565 229.928C208.447 229.883 209.546 229.86 209.863 229.86C210.294 229.86 210.509 230.121 210.509 230.642C210.509 230.778 210.441 231.231 210.305 232.002C210.169 232.75 210.101 233.453 210.101 234.11C210.101 234.314 210.045 234.495 209.931 234.654C209.818 234.79 209.693 234.858 209.557 234.858C209.217 234.858 209.047 234.62 209.047 234.144C209.047 233.532 208.855 232.977 208.469 232.478C208.084 231.979 207.608 231.719 207.041 231.696C205.001 231.537 203.437 231.458 202.349 231.458H201.465C200.287 231.458 199.595 231.549 199.391 231.73C199.21 231.889 199.097 232.489 199.051 233.532C198.961 235.164 198.915 237.057 198.915 239.21C198.915 240.343 199.131 240.921 199.561 240.944H200.411H201.839H202.893C204.253 240.944 205.16 240.899 205.613 240.808C206.067 240.717 206.475 240.547 206.837 240.298C207.268 240.003 207.529 239.584 207.619 239.04C207.687 238.655 207.846 238.462 208.095 238.462C208.299 238.462 208.424 238.496 208.469 238.564C208.515 238.632 208.537 238.779 208.537 239.006C208.537 239.165 208.492 239.686 208.401 240.57C208.311 241.454 208.265 242.123 208.265 242.576C208.265 243.007 208.277 243.415 208.299 243.8C208.345 244.185 208.367 244.469 208.367 244.65C208.367 245.217 208.288 245.5 208.129 245.5C207.789 245.5 207.54 245.228 207.381 244.684C207.064 243.732 206.781 243.177 206.531 243.018C206.055 242.701 204.967 242.542 203.267 242.542C202.587 242.542 202.032 242.542 201.601 242.542C201.193 242.542 200.921 242.542 200.785 242.542C200.672 242.519 200.57 242.508 200.479 242.508C200.411 242.508 200.343 242.508 200.275 242.508C199.346 242.508 198.881 242.723 198.881 243.154C198.881 243.811 198.87 244.639 198.847 245.636C198.825 246.611 198.813 247.415 198.813 248.05V249.41C198.813 251.042 199.085 251.937 199.629 252.096C200.196 252.277 200.683 252.368 201.091 252.368C202.791 252.368 204.276 252.289 205.545 252.13C206.837 251.971 207.801 251.779 208.435 251.552C209.093 251.303 209.637 251.042 210.067 250.77C210.498 250.475 210.77 250.215 210.883 249.988C211.019 249.739 211.144 249.535 211.257 249.376C211.393 249.217 211.529 249.138 211.665 249.138C211.937 249.138 212.073 249.331 212.073 249.716C212.073 250.691 211.586 251.677 210.611 252.674C209.637 253.671 208.787 254.17 208.061 254.17C206.429 254.17 204.582 254.113 202.519 254C200.479 253.887 199.21 253.83 198.711 253.83C198.077 253.83 197.283 253.887 196.331 254C195.379 254.091 194.631 254.136 194.087 254.136C193.611 254.136 193.373 254.023 193.373 253.796C193.373 253.592 193.373 253.456 193.373 253.388C193.373 253.32 193.407 253.263 193.475 253.218C193.543 253.173 193.611 253.15 193.679 253.15C193.77 253.127 193.917 253.082 194.121 253.014C194.348 252.946 194.586 252.855 194.835 252.742C195.379 252.47 195.731 251.937 195.889 251.144C196.071 250.351 196.161 248.685 196.161 246.146V241.93C196.161 241.318 196.173 240.366 196.195 239.074C196.241 237.782 196.263 236.773 196.263 236.048C196.263 235.436 196.241 234.405 196.195 232.954C196.173 232.297 195.889 231.787 195.345 231.424C194.801 231.061 194.167 230.869 193.441 230.846C193.079 230.846 192.897 230.642 192.897 230.234ZM221.237 230.336C221.237 229.973 221.565 229.792 222.223 229.792H227.867C228.388 229.792 228.989 229.781 229.669 229.758C230.349 229.713 230.881 229.69 231.267 229.69C233.307 229.69 235.052 230.211 236.503 231.254C237.953 232.274 238.679 233.657 238.679 235.402C238.679 236.558 238.452 237.578 237.999 238.462C237.568 239.323 237.081 239.947 236.537 240.332C236.015 240.717 235.528 241.057 235.075 241.352C234.644 241.624 234.429 241.805 234.429 241.896C234.429 242.168 235.381 243.641 237.285 246.316C239.189 248.968 240.492 250.668 241.195 251.416C242.056 252.481 243.099 253.014 244.323 253.014C244.64 253.014 244.799 253.15 244.799 253.422C244.799 253.762 244.663 253.989 244.391 254.102C244.119 254.215 243.416 254.272 242.283 254.272C241.217 254.272 240.243 254.011 239.359 253.49C238.225 252.833 236.31 250.294 233.613 245.874C233.454 245.625 233.341 245.443 233.273 245.33C232.185 243.562 231.346 242.678 230.757 242.678H230.043H227.969C227.697 242.678 227.527 242.791 227.459 243.018C227.413 243.245 227.391 243.936 227.391 245.092C227.391 246.18 227.391 247.075 227.391 247.778C227.391 248.481 227.391 248.934 227.391 249.138C227.413 249.319 227.425 249.478 227.425 249.614C227.425 249.727 227.425 249.818 227.425 249.886C227.425 250.815 227.64 251.541 228.071 252.062C228.501 252.561 228.977 252.855 229.499 252.946C230.043 253.014 230.53 253.105 230.961 253.218C231.391 253.309 231.607 253.467 231.607 253.694C231.607 254.057 231.403 254.238 230.995 254.238C230.972 254.238 230.19 254.193 228.649 254.102C227.107 254.034 226.269 254 226.133 254C225.475 254 224.693 254.023 223.787 254.068C222.88 254.113 222.415 254.136 222.393 254.136C221.917 254.136 221.679 253.955 221.679 253.592C221.679 253.343 221.826 253.173 222.121 253.082C222.415 252.969 222.744 252.889 223.107 252.844C223.469 252.799 223.798 252.549 224.093 252.096C224.387 251.643 224.535 250.997 224.535 250.158C224.535 249.569 224.535 247.982 224.535 245.398C224.557 242.814 224.569 240.831 224.569 239.448C224.569 238.043 224.557 236.762 224.535 235.606C224.535 234.427 224.535 233.793 224.535 233.702C224.535 232.863 224.365 232.229 224.025 231.798C223.685 231.345 223.299 231.095 222.869 231.05C222.461 230.982 222.087 230.903 221.747 230.812C221.407 230.721 221.237 230.563 221.237 230.336ZM227.391 235.776C227.391 238.111 227.402 239.561 227.425 240.128C227.447 240.672 227.527 240.989 227.663 241.08C228.003 241.284 228.49 241.386 229.125 241.386H229.465H230.451C232.377 241.386 233.749 240.944 234.565 240.06C235.403 239.176 235.823 238.043 235.823 236.66C235.823 235.255 235.267 233.974 234.157 232.818C233.069 231.662 231.414 231.084 229.193 231.084C228.354 231.084 227.844 231.311 227.663 231.764C227.481 232.195 227.391 233.215 227.391 234.824V235.776Z" fill="#EFE5C9"/>
<path d="M91.22 265.355C91.22 265.245 91.3227 265.19 91.528 265.19C91.6013 265.19 91.77 265.197 92.034 265.212C92.298 265.227 92.5437 265.234 92.771 265.234C92.9103 265.234 93.0423 265.23 93.167 265.223C93.299 265.216 93.4897 265.212 93.739 265.212C93.937 265.212 94.036 265.263 94.036 265.366C94.036 265.425 93.8673 265.524 93.53 265.663C93.2953 265.758 93.178 266.18 93.178 266.928C93.178 267.918 93.1707 268.794 93.156 269.557C93.1487 270.312 93.145 270.793 93.145 270.998C93.145 271.614 93.2367 272.058 93.42 272.329C93.5813 272.556 93.7573 272.67 93.948 272.67C93.9627 272.67 93.9993 272.674 94.058 272.681C94.1167 272.681 94.1533 272.681 94.168 272.681C94.2193 272.681 94.2707 272.696 94.322 272.725C94.3733 272.747 94.399 272.773 94.399 272.802C94.399 272.883 94.377 272.938 94.333 272.967C94.2963 272.989 94.2267 273 94.124 273C93.904 273 93.6987 272.993 93.508 272.978C93.3247 272.963 93.1817 272.956 93.079 272.956C92.8737 272.956 92.65 272.967 92.408 272.989C92.166 273.004 91.9863 273.011 91.869 273.011C91.539 273.011 91.374 272.956 91.374 272.846C91.374 272.78 91.407 272.736 91.473 272.714C91.5463 272.685 91.627 272.666 91.715 272.659C91.803 272.644 91.8947 272.597 91.99 272.516C92.0853 272.428 92.1513 272.303 92.188 272.142C92.2027 272.091 92.2247 271.676 92.254 270.899C92.2907 270.114 92.309 269.55 92.309 269.205V268.578C92.309 268.483 92.309 268.303 92.309 268.039C92.3163 267.768 92.32 267.551 92.32 267.39V266.884C92.32 266.561 92.3053 266.294 92.276 266.081C92.254 265.905 92.155 265.769 91.979 265.674C91.8103 265.579 91.6343 265.527 91.451 265.52C91.297 265.513 91.22 265.458 91.22 265.355ZM97.3594 265.355C97.3594 265.245 97.4254 265.19 97.5574 265.19C97.6014 265.19 97.7004 265.197 97.8544 265.212C98.0157 265.227 98.111 265.234 98.1404 265.234C98.2504 265.234 98.4007 265.23 98.5914 265.223C98.782 265.216 98.9067 265.212 98.9654 265.212C99.1047 265.212 99.1927 265.263 99.2294 265.366C99.3174 265.557 99.475 265.901 99.7024 266.4C99.9297 266.891 100.109 267.284 100.241 267.577C100.381 267.87 100.557 268.244 100.769 268.699C100.982 269.154 101.154 269.524 101.286 269.81C101.418 270.089 101.554 270.371 101.693 270.657C101.84 270.943 101.95 271.156 102.023 271.295C102.104 271.427 102.155 271.493 102.177 271.493C102.199 271.493 102.221 271.482 102.243 271.46C102.273 271.431 102.298 271.394 102.32 271.35C102.35 271.306 102.372 271.262 102.386 271.218C102.408 271.174 102.434 271.119 102.463 271.053C102.5 270.98 102.526 270.925 102.54 270.888L103.959 267.962C104.121 267.632 104.264 267.335 104.388 267.071C104.513 266.807 104.612 266.594 104.685 266.433C104.759 266.272 104.821 266.132 104.872 266.015C104.924 265.898 104.96 265.81 104.982 265.751C105.012 265.692 105.03 265.648 105.037 265.619C105.052 265.582 105.063 265.557 105.07 265.542C105.078 265.52 105.085 265.502 105.092 265.487C105.1 265.472 105.111 265.439 105.125 265.388C105.147 265.337 105.166 265.304 105.18 265.289C105.202 265.267 105.239 265.245 105.29 265.223C105.349 265.201 105.422 265.19 105.51 265.19C105.65 265.19 105.778 265.194 105.895 265.201C106.02 265.208 106.207 265.212 106.456 265.212C106.581 265.212 106.643 265.26 106.643 265.355C106.643 265.428 106.618 265.483 106.566 265.52C106.522 265.549 106.427 265.575 106.28 265.597C106.097 265.619 105.969 265.711 105.895 265.872C105.822 266.033 105.785 266.341 105.785 266.796C105.785 267.786 105.807 268.684 105.851 269.491C105.895 270.29 105.917 270.793 105.917 270.998C105.917 271.731 105.976 272.201 106.093 272.406C106.211 272.604 106.456 272.703 106.83 272.703C106.882 272.703 106.926 272.721 106.962 272.758C107.006 272.795 107.028 272.828 107.028 272.857C107.028 272.901 107.025 272.934 107.017 272.956C107.01 272.978 106.995 272.996 106.973 273.011C106.951 273.026 106.929 273.033 106.907 273.033C106.885 273.033 106.845 273.033 106.786 273.033C106.566 273.033 106.35 273.026 106.137 273.011C105.925 272.996 105.767 272.989 105.664 272.989C105.459 272.989 105.246 272.996 105.026 273.011C104.806 273.033 104.638 273.044 104.52 273.044C104.388 273.044 104.322 272.993 104.322 272.89C104.322 272.824 104.352 272.776 104.41 272.747C104.469 272.718 104.535 272.699 104.608 272.692C104.689 272.685 104.77 272.641 104.85 272.56C104.938 272.472 105.001 272.344 105.037 272.175C105.067 272.028 105.081 271.794 105.081 271.471C105.081 271.236 105.074 270.954 105.059 270.624C105.052 270.294 105.041 269.975 105.026 269.667C105.012 269.352 104.997 269.058 104.982 268.787C104.968 268.508 104.957 268.281 104.949 268.105L104.927 267.841C104.927 267.526 104.894 267.368 104.828 267.368C104.821 267.368 104.81 267.372 104.795 267.379C104.781 267.386 104.766 267.397 104.751 267.412C104.744 267.427 104.733 267.441 104.718 267.456C104.704 267.471 104.689 267.496 104.674 267.533C104.66 267.562 104.645 267.588 104.63 267.61C104.616 267.632 104.597 267.665 104.575 267.709C104.553 267.746 104.535 267.779 104.52 267.808C104.506 267.837 104.484 267.878 104.454 267.929C104.432 267.98 104.414 268.024 104.399 268.061L102.87 271.152C102.694 271.511 102.507 271.896 102.309 272.307C102.177 272.586 102.097 272.751 102.067 272.802C102.038 272.846 102.001 272.868 101.957 272.868C101.891 272.868 101.836 272.839 101.792 272.78C101.748 272.714 101.682 272.575 101.594 272.362C101.506 272.149 101.429 271.973 101.363 271.834C100.021 269.106 99.332 267.716 99.2954 267.665C99.2734 267.636 99.2514 267.621 99.2294 267.621C99.1707 267.621 99.1414 267.768 99.1414 268.061C99.134 268.633 99.1157 269.198 99.0864 269.755C99.057 270.312 99.0424 270.716 99.0424 270.965V271.46C99.0424 271.651 99.046 271.797 99.0534 271.9C99.068 272.003 99.0974 272.124 99.1414 272.263C99.1927 272.395 99.2807 272.498 99.4054 272.571C99.53 272.644 99.6914 272.692 99.8894 272.714C99.926 272.714 99.959 272.729 99.9884 272.758C100.025 272.78 100.043 272.806 100.043 272.835C100.043 272.916 100.032 272.971 100.01 273C99.9884 273.022 99.9444 273.033 99.8784 273.033C99.7317 273.033 99.5117 273.026 99.2184 273.011C98.925 272.996 98.7637 272.989 98.7344 272.989C98.7197 272.989 98.6134 272.993 98.4154 273C98.2174 273.015 98.023 273.022 97.8324 273.022C97.7737 273.022 97.7297 273.018 97.7004 273.011C97.6784 273.004 97.6564 272.989 97.6344 272.967C97.6124 272.938 97.6014 272.897 97.6014 272.846C97.6014 272.787 97.6344 272.747 97.7004 272.725C97.7664 272.703 97.8397 272.692 97.9204 272.692C98.0084 272.685 98.1037 272.626 98.2064 272.516C98.309 272.399 98.386 272.23 98.4374 272.01C98.474 271.849 98.518 271.211 98.5694 270.096C98.6207 268.981 98.6464 268.156 98.6464 267.621C98.6464 266.888 98.573 266.382 98.4264 266.103C98.287 265.824 97.979 265.63 97.5024 265.52C97.407 265.498 97.3594 265.443 97.3594 265.355ZM109.998 265.355C109.998 265.245 110.064 265.19 110.196 265.19C110.24 265.19 110.339 265.197 110.493 265.212C110.654 265.227 110.749 265.234 110.779 265.234C110.889 265.234 111.039 265.23 111.23 265.223C111.42 265.216 111.545 265.212 111.604 265.212C111.743 265.212 111.831 265.263 111.868 265.366C111.956 265.557 112.113 265.901 112.341 266.4C112.568 266.891 112.748 267.284 112.88 267.577C113.019 267.87 113.195 268.244 113.408 268.699C113.62 269.154 113.793 269.524 113.925 269.81C114.057 270.089 114.192 270.371 114.332 270.657C114.478 270.943 114.588 271.156 114.662 271.295C114.742 271.427 114.794 271.493 114.816 271.493C114.838 271.493 114.86 271.482 114.882 271.46C114.911 271.431 114.937 271.394 114.959 271.35C114.988 271.306 115.01 271.262 115.025 271.218C115.047 271.174 115.072 271.119 115.102 271.053C115.138 270.98 115.164 270.925 115.179 270.888L116.598 267.962C116.759 267.632 116.902 267.335 117.027 267.071C117.151 266.807 117.25 266.594 117.324 266.433C117.397 266.272 117.459 266.132 117.511 266.015C117.562 265.898 117.599 265.81 117.621 265.751C117.65 265.692 117.668 265.648 117.676 265.619C117.69 265.582 117.701 265.557 117.709 265.542C117.716 265.52 117.723 265.502 117.731 265.487C117.738 265.472 117.749 265.439 117.764 265.388C117.786 265.337 117.804 265.304 117.819 265.289C117.841 265.267 117.877 265.245 117.929 265.223C117.987 265.201 118.061 265.19 118.149 265.19C118.288 265.19 118.416 265.194 118.534 265.201C118.658 265.208 118.845 265.212 119.095 265.212C119.219 265.212 119.282 265.26 119.282 265.355C119.282 265.428 119.256 265.483 119.205 265.52C119.161 265.549 119.065 265.575 118.919 265.597C118.735 265.619 118.607 265.711 118.534 265.872C118.46 266.033 118.424 266.341 118.424 266.796C118.424 267.786 118.446 268.684 118.49 269.491C118.534 270.29 118.556 270.793 118.556 270.998C118.556 271.731 118.614 272.201 118.732 272.406C118.849 272.604 119.095 272.703 119.469 272.703C119.52 272.703 119.564 272.721 119.601 272.758C119.645 272.795 119.667 272.828 119.667 272.857C119.667 272.901 119.663 272.934 119.656 272.956C119.648 272.978 119.634 272.996 119.612 273.011C119.59 273.026 119.568 273.033 119.546 273.033C119.524 273.033 119.483 273.033 119.425 273.033C119.205 273.033 118.988 273.026 118.776 273.011C118.563 272.996 118.405 272.989 118.303 272.989C118.097 272.989 117.885 272.996 117.665 273.011C117.445 273.033 117.276 273.044 117.159 273.044C117.027 273.044 116.961 272.993 116.961 272.89C116.961 272.824 116.99 272.776 117.049 272.747C117.107 272.718 117.173 272.699 117.247 272.692C117.327 272.685 117.408 272.641 117.489 272.56C117.577 272.472 117.639 272.344 117.676 272.175C117.705 272.028 117.72 271.794 117.72 271.471C117.72 271.236 117.712 270.954 117.698 270.624C117.69 270.294 117.679 269.975 117.665 269.667C117.65 269.352 117.635 269.058 117.621 268.787C117.606 268.508 117.595 268.281 117.588 268.105L117.566 267.841C117.566 267.526 117.533 267.368 117.467 267.368C117.459 267.368 117.448 267.372 117.434 267.379C117.419 267.386 117.404 267.397 117.39 267.412C117.382 267.427 117.371 267.441 117.357 267.456C117.342 267.471 117.327 267.496 117.313 267.533C117.298 267.562 117.283 267.588 117.269 267.61C117.254 267.632 117.236 267.665 117.214 267.709C117.192 267.746 117.173 267.779 117.159 267.808C117.144 267.837 117.122 267.878 117.093 267.929C117.071 267.98 117.052 268.024 117.038 268.061L115.509 271.152C115.333 271.511 115.146 271.896 114.948 272.307C114.816 272.586 114.735 272.751 114.706 272.802C114.676 272.846 114.64 272.868 114.596 272.868C114.53 272.868 114.475 272.839 114.431 272.78C114.387 272.714 114.321 272.575 114.233 272.362C114.145 272.149 114.068 271.973 114.002 271.834C112.66 269.106 111.97 267.716 111.934 267.665C111.912 267.636 111.89 267.621 111.868 267.621C111.809 267.621 111.78 267.768 111.78 268.061C111.772 268.633 111.754 269.198 111.725 269.755C111.695 270.312 111.681 270.716 111.681 270.965V271.46C111.681 271.651 111.684 271.797 111.692 271.9C111.706 272.003 111.736 272.124 111.78 272.263C111.831 272.395 111.919 272.498 112.044 272.571C112.168 272.644 112.33 272.692 112.528 272.714C112.564 272.714 112.597 272.729 112.627 272.758C112.663 272.78 112.682 272.806 112.682 272.835C112.682 272.916 112.671 272.971 112.649 273C112.627 273.022 112.583 273.033 112.517 273.033C112.37 273.033 112.15 273.026 111.857 273.011C111.563 272.996 111.402 272.989 111.373 272.989C111.358 272.989 111.252 272.993 111.054 273C110.856 273.015 110.661 273.022 110.471 273.022C110.412 273.022 110.368 273.018 110.339 273.011C110.317 273.004 110.295 272.989 110.273 272.967C110.251 272.938 110.24 272.897 110.24 272.846C110.24 272.787 110.273 272.747 110.339 272.725C110.405 272.703 110.478 272.692 110.559 272.692C110.647 272.685 110.742 272.626 110.845 272.516C110.947 272.399 111.024 272.23 111.076 272.01C111.112 271.849 111.156 271.211 111.208 270.096C111.259 268.981 111.285 268.156 111.285 267.621C111.285 266.888 111.211 266.382 111.065 266.103C110.925 265.824 110.617 265.63 110.141 265.52C110.045 265.498 109.998 265.443 109.998 265.355ZM122.739 269.271C122.739 268.039 123.109 267.031 123.85 266.246C124.591 265.454 125.639 265.058 126.996 265.058C127.627 265.058 128.195 265.15 128.701 265.333C129.207 265.516 129.607 265.744 129.9 266.015C130.193 266.279 130.439 266.583 130.637 266.928C130.835 267.273 130.971 267.592 131.044 267.885C131.117 268.171 131.154 268.439 131.154 268.688C131.154 269.685 130.96 270.529 130.571 271.218C130.182 271.9 129.669 272.399 129.031 272.714C128.4 273.022 127.671 273.176 126.842 273.176C125.969 273.176 125.214 272.985 124.576 272.604C123.945 272.223 123.48 271.742 123.179 271.163C122.886 270.584 122.739 269.953 122.739 269.271ZM123.707 268.71C123.707 269.003 123.747 269.322 123.828 269.667C123.909 270.004 124.041 270.356 124.224 270.723C124.407 271.082 124.627 271.409 124.884 271.702C125.148 271.988 125.478 272.226 125.874 272.417C126.277 272.6 126.717 272.692 127.194 272.692C127.443 272.692 127.704 272.655 127.975 272.582C128.254 272.501 128.529 272.38 128.8 272.219C129.071 272.058 129.313 271.863 129.526 271.636C129.739 271.401 129.911 271.119 130.043 270.789C130.182 270.452 130.252 270.089 130.252 269.7C130.252 268.373 129.904 267.342 129.207 266.609C128.51 265.868 127.649 265.498 126.622 265.498C125.815 265.498 125.126 265.769 124.554 266.312C123.989 266.855 123.707 267.654 123.707 268.71ZM134.383 265.366C134.383 265.256 134.416 265.201 134.482 265.201C134.504 265.201 134.552 265.205 134.625 265.212C134.698 265.212 134.797 265.212 134.922 265.212C135.069 265.212 135.358 265.212 135.791 265.212C136.231 265.205 136.477 265.201 136.528 265.201C136.697 265.201 136.909 265.197 137.166 265.19C137.423 265.175 137.613 265.168 137.738 265.168C138.405 265.168 138.963 265.329 139.41 265.652C139.857 265.967 140.081 266.418 140.081 267.005C140.081 267.218 140.041 267.419 139.96 267.61C139.887 267.793 139.795 267.944 139.685 268.061C139.582 268.178 139.476 268.281 139.366 268.369C139.263 268.45 139.172 268.516 139.091 268.567C139.018 268.611 138.981 268.637 138.981 268.644C138.981 268.666 139.043 268.695 139.168 268.732C139.293 268.761 139.443 268.816 139.619 268.897C139.795 268.97 139.967 269.073 140.136 269.205C140.312 269.337 140.462 269.535 140.587 269.799C140.712 270.056 140.774 270.36 140.774 270.712C140.774 271.027 140.682 271.365 140.499 271.724C140.316 272.083 140.099 272.347 139.85 272.516C139.527 272.743 139.227 272.897 138.948 272.978C138.669 273.051 138.332 273.088 137.936 273.088C137.643 273.088 137.254 273.066 136.77 273.022C136.286 272.985 136.018 272.967 135.967 272.967C135.886 272.967 135.74 272.974 135.527 272.989C135.322 273.004 135.153 273.011 135.021 273.011H134.867C134.713 273.011 134.636 272.956 134.636 272.846C134.636 272.743 134.676 272.692 134.757 272.692C134.801 272.692 134.849 272.692 134.9 272.692C134.951 272.685 134.988 272.681 135.01 272.681C135.076 272.681 135.138 272.659 135.197 272.615C135.263 272.564 135.329 272.457 135.395 272.296C135.461 272.127 135.498 271.915 135.505 271.658C135.527 271.181 135.538 270.037 135.538 268.226V266.356C135.538 266.305 135.527 266.246 135.505 266.18C135.49 266.107 135.454 266.015 135.395 265.905C135.344 265.788 135.245 265.692 135.098 265.619C134.959 265.538 134.783 265.498 134.57 265.498C134.445 265.498 134.383 265.454 134.383 265.366ZM136.374 271.988C136.374 272.428 136.733 272.648 137.452 272.648H137.705C138.101 272.648 138.416 272.63 138.651 272.593C138.996 272.534 139.278 272.355 139.498 272.054C139.725 271.753 139.839 271.394 139.839 270.976C139.839 270.617 139.773 270.309 139.641 270.052C139.509 269.788 139.359 269.59 139.19 269.458C139.021 269.326 138.82 269.223 138.585 269.15C138.358 269.077 138.178 269.033 138.046 269.018C137.921 269.003 137.8 268.996 137.683 268.996C137.448 268.996 137.254 268.996 137.1 268.996C136.953 268.989 136.858 268.985 136.814 268.985C136.777 268.985 136.744 268.985 136.715 268.985C136.693 268.978 136.675 268.974 136.66 268.974C136.594 268.974 136.546 268.985 136.517 269.007C136.488 269.022 136.458 269.091 136.429 269.216C136.407 269.333 136.392 269.506 136.385 269.733C136.385 269.96 136.385 270.301 136.385 270.756V270.844C136.385 271.115 136.385 271.335 136.385 271.504C136.385 271.673 136.381 271.794 136.374 271.867C136.374 271.933 136.374 271.973 136.374 271.988ZM136.44 267.005C136.44 267.372 136.44 267.658 136.44 267.863C136.447 268.068 136.458 268.226 136.473 268.336C136.488 268.446 136.502 268.516 136.517 268.545C136.532 268.574 136.554 268.589 136.583 268.589C136.788 268.611 136.975 268.622 137.144 268.622H137.848C138.31 268.622 138.655 268.501 138.882 268.259C139.117 268.017 139.234 267.705 139.234 267.324C139.234 266.913 139.04 266.517 138.651 266.136C138.27 265.747 137.723 265.553 137.012 265.553C136.785 265.553 136.631 265.623 136.55 265.762C136.477 265.894 136.44 266.202 136.44 266.686V267.005ZM143.842 265.355C143.842 265.245 143.944 265.19 144.15 265.19C144.223 265.19 144.392 265.197 144.656 265.212C144.92 265.227 145.165 265.234 145.393 265.234C145.532 265.234 145.664 265.23 145.789 265.223C145.921 265.216 146.111 265.212 146.361 265.212C146.559 265.212 146.658 265.263 146.658 265.366C146.658 265.425 146.489 265.524 146.152 265.663C145.917 265.758 145.8 266.18 145.8 266.928C145.8 267.918 145.792 268.794 145.778 269.557C145.77 270.312 145.767 270.793 145.767 270.998C145.767 271.614 145.858 272.058 146.042 272.329C146.203 272.556 146.379 272.67 146.57 272.67C146.584 272.67 146.621 272.674 146.68 272.681C146.738 272.681 146.775 272.681 146.79 272.681C146.841 272.681 146.892 272.696 146.944 272.725C146.995 272.747 147.021 272.773 147.021 272.802C147.021 272.883 146.999 272.938 146.955 272.967C146.918 272.989 146.848 273 146.746 273C146.526 273 146.32 272.993 146.13 272.978C145.946 272.963 145.803 272.956 145.701 272.956C145.495 272.956 145.272 272.967 145.03 272.989C144.788 273.004 144.608 273.011 144.491 273.011C144.161 273.011 143.996 272.956 143.996 272.846C143.996 272.78 144.029 272.736 144.095 272.714C144.168 272.685 144.249 272.666 144.337 272.659C144.425 272.644 144.516 272.597 144.612 272.516C144.707 272.428 144.773 272.303 144.81 272.142C144.824 272.091 144.846 271.676 144.876 270.899C144.912 270.114 144.931 269.55 144.931 269.205V268.578C144.931 268.483 144.931 268.303 144.931 268.039C144.938 267.768 144.942 267.551 144.942 267.39V266.884C144.942 266.561 144.927 266.294 144.898 266.081C144.876 265.905 144.777 265.769 144.601 265.674C144.432 265.579 144.256 265.527 144.073 265.52C143.919 265.513 143.842 265.458 143.842 265.355ZM149.981 265.355C149.981 265.223 150.08 265.157 150.278 265.157C150.307 265.157 150.355 265.161 150.421 265.168C150.487 265.175 150.538 265.179 150.575 265.179C150.648 265.179 150.784 265.186 150.982 265.201C151.187 265.216 151.371 265.223 151.532 265.223C151.759 265.223 152.001 265.216 152.258 265.201C152.515 265.186 152.658 265.179 152.687 265.179C152.812 265.179 152.874 265.216 152.874 265.289C152.874 265.392 152.83 265.461 152.742 265.498C152.654 265.527 152.555 265.549 152.445 265.564C152.342 265.571 152.24 265.652 152.137 265.806C152.042 265.953 151.987 266.176 151.972 266.477C151.957 266.763 151.939 267.562 151.917 268.875C151.895 270.188 151.884 270.921 151.884 271.075V271.515C151.884 272.043 151.972 272.333 152.148 272.384C152.331 272.443 152.489 272.472 152.621 272.472C153.171 272.472 153.651 272.446 154.062 272.395C154.48 272.344 154.792 272.281 154.997 272.208C155.21 272.127 155.386 272.043 155.525 271.955C155.664 271.86 155.752 271.775 155.789 271.702C155.833 271.621 155.873 271.555 155.91 271.504C155.954 271.453 155.998 271.427 156.042 271.427C156.13 271.427 156.174 271.489 156.174 271.614C156.174 271.929 156.016 272.248 155.701 272.571C155.386 272.894 155.111 273.055 154.876 273.055C154.348 273.055 153.75 273.037 153.083 273C152.423 272.963 152.012 272.945 151.851 272.945C151.646 272.945 151.407 272.96 151.136 272.989C150.872 273.018 150.652 273.033 150.476 273.033C150.263 273.033 150.157 272.989 150.157 272.901C150.157 272.85 150.175 272.809 150.212 272.78C150.256 272.743 150.296 272.725 150.333 272.725C150.443 272.725 150.549 272.688 150.652 272.615C150.784 272.512 150.879 272.325 150.938 272.054C150.997 271.775 151.026 271.244 151.026 270.459V269.095C151.026 268.897 151.03 268.589 151.037 268.171C151.052 267.753 151.059 267.427 151.059 267.192C151.059 266.994 151.052 266.66 151.037 266.191C151.03 265.978 150.938 265.813 150.762 265.696C150.586 265.579 150.381 265.516 150.146 265.509C150.073 265.509 150.025 265.498 150.003 265.476C149.988 265.447 149.981 265.406 149.981 265.355ZM159.139 265.355C159.139 265.245 159.242 265.19 159.447 265.19C159.52 265.19 159.689 265.197 159.953 265.212C160.217 265.227 160.463 265.234 160.69 265.234C160.829 265.234 160.961 265.23 161.086 265.223C161.218 265.216 161.409 265.212 161.658 265.212C161.856 265.212 161.955 265.263 161.955 265.366C161.955 265.425 161.786 265.524 161.449 265.663C161.214 265.758 161.097 266.18 161.097 266.928C161.097 267.918 161.09 268.794 161.075 269.557C161.068 270.312 161.064 270.793 161.064 270.998C161.064 271.614 161.156 272.058 161.339 272.329C161.5 272.556 161.676 272.67 161.867 272.67C161.882 272.67 161.918 272.674 161.977 272.681C162.036 272.681 162.072 272.681 162.087 272.681C162.138 272.681 162.19 272.696 162.241 272.725C162.292 272.747 162.318 272.773 162.318 272.802C162.318 272.883 162.296 272.938 162.252 272.967C162.215 272.989 162.146 273 162.043 273C161.823 273 161.618 272.993 161.427 272.978C161.244 272.963 161.101 272.956 160.998 272.956C160.793 272.956 160.569 272.967 160.327 272.989C160.085 273.004 159.905 273.011 159.788 273.011C159.458 273.011 159.293 272.956 159.293 272.846C159.293 272.78 159.326 272.736 159.392 272.714C159.465 272.685 159.546 272.666 159.634 272.659C159.722 272.644 159.814 272.597 159.909 272.516C160.004 272.428 160.07 272.303 160.107 272.142C160.122 272.091 160.144 271.676 160.173 270.899C160.21 270.114 160.228 269.55 160.228 269.205V268.578C160.228 268.483 160.228 268.303 160.228 268.039C160.235 267.768 160.239 267.551 160.239 267.39V266.884C160.239 266.561 160.224 266.294 160.195 266.081C160.173 265.905 160.074 265.769 159.898 265.674C159.729 265.579 159.553 265.527 159.37 265.52C159.216 265.513 159.139 265.458 159.139 265.355ZM165.278 265.311C165.278 265.208 165.381 265.157 165.586 265.157C165.616 265.157 165.663 265.161 165.729 265.168C165.795 265.175 165.847 265.179 165.883 265.179C165.905 265.179 166.25 265.19 166.917 265.212C167.585 265.227 168.135 265.234 168.567 265.234C168.721 265.234 169.099 265.227 169.7 265.212C170.309 265.197 170.665 265.19 170.767 265.19C170.907 265.19 170.976 265.274 170.976 265.443C170.976 265.487 170.954 265.634 170.91 265.883C170.866 266.125 170.844 266.352 170.844 266.565C170.844 266.631 170.826 266.69 170.789 266.741C170.753 266.785 170.712 266.807 170.668 266.807C170.558 266.807 170.503 266.73 170.503 266.576C170.503 266.378 170.441 266.198 170.316 266.037C170.192 265.876 170.038 265.791 169.854 265.784C169.194 265.733 168.688 265.707 168.336 265.707H168.05C167.669 265.707 167.445 265.736 167.379 265.795C167.321 265.846 167.284 266.041 167.269 266.378C167.24 266.906 167.225 267.518 167.225 268.215C167.225 268.582 167.295 268.769 167.434 268.776H167.709H168.171H168.512C168.952 268.776 169.246 268.761 169.392 268.732C169.539 268.703 169.671 268.648 169.788 268.567C169.928 268.472 170.012 268.336 170.041 268.16C170.063 268.035 170.115 267.973 170.195 267.973C170.261 267.973 170.302 267.984 170.316 268.006C170.331 268.028 170.338 268.076 170.338 268.149C170.338 268.2 170.324 268.369 170.294 268.655C170.265 268.941 170.25 269.157 170.25 269.304C170.25 269.443 170.254 269.575 170.261 269.7C170.276 269.825 170.283 269.916 170.283 269.975C170.283 270.158 170.258 270.25 170.206 270.25C170.096 270.25 170.016 270.162 169.964 269.986C169.862 269.678 169.77 269.498 169.689 269.447C169.535 269.344 169.183 269.293 168.633 269.293C168.413 269.293 168.234 269.293 168.094 269.293C167.962 269.293 167.874 269.293 167.83 269.293C167.794 269.286 167.761 269.282 167.731 269.282C167.709 269.282 167.687 269.282 167.665 269.282C167.365 269.282 167.214 269.352 167.214 269.491C167.214 269.704 167.211 269.971 167.203 270.294C167.196 270.609 167.192 270.87 167.192 271.075V271.515C167.192 272.043 167.28 272.333 167.456 272.384C167.64 272.443 167.797 272.472 167.929 272.472C168.479 272.472 168.96 272.446 169.37 272.395C169.788 272.344 170.1 272.281 170.305 272.208C170.518 272.127 170.694 272.043 170.833 271.955C170.973 271.86 171.061 271.775 171.097 271.702C171.141 271.621 171.182 271.555 171.218 271.504C171.262 271.453 171.306 271.427 171.35 271.427C171.438 271.427 171.482 271.489 171.482 271.614C171.482 271.929 171.325 272.248 171.009 272.571C170.694 272.894 170.419 273.055 170.184 273.055C169.656 273.055 169.059 273.037 168.391 273C167.731 272.963 167.321 272.945 167.159 272.945C166.954 272.945 166.697 272.963 166.389 273C166.081 273.029 165.839 273.044 165.663 273.044C165.509 273.044 165.432 273.007 165.432 272.934C165.432 272.868 165.432 272.824 165.432 272.802C165.432 272.78 165.443 272.762 165.465 272.747C165.487 272.732 165.509 272.725 165.531 272.725C165.561 272.718 165.608 272.703 165.674 272.681C165.748 272.659 165.825 272.63 165.905 272.593C166.081 272.505 166.195 272.333 166.246 272.076C166.305 271.819 166.334 271.28 166.334 270.459V269.095C166.334 268.897 166.338 268.589 166.345 268.171C166.36 267.753 166.367 267.427 166.367 267.192C166.367 266.994 166.36 266.66 166.345 266.191C166.338 265.978 166.246 265.813 166.07 265.696C165.894 265.579 165.689 265.516 165.454 265.509C165.337 265.509 165.278 265.443 165.278 265.311ZM174.447 265.344C174.447 265.227 174.553 265.168 174.766 265.168H176.592C176.761 265.168 176.955 265.164 177.175 265.157C177.395 265.142 177.567 265.135 177.692 265.135C178.352 265.135 178.917 265.304 179.386 265.641C179.855 265.971 180.09 266.418 180.09 266.983C180.09 267.357 180.017 267.687 179.87 267.973C179.731 268.252 179.573 268.453 179.397 268.578C179.228 268.703 179.071 268.813 178.924 268.908C178.785 268.996 178.715 269.055 178.715 269.084C178.715 269.172 179.023 269.649 179.639 270.514C180.255 271.372 180.677 271.922 180.904 272.164C181.183 272.509 181.52 272.681 181.916 272.681C182.019 272.681 182.07 272.725 182.07 272.813C182.07 272.923 182.026 272.996 181.938 273.033C181.85 273.07 181.623 273.088 181.256 273.088C180.911 273.088 180.596 273.004 180.31 272.835C179.943 272.622 179.324 271.801 178.451 270.371C178.4 270.29 178.363 270.232 178.341 270.195C177.989 269.623 177.718 269.337 177.527 269.337H177.296H176.625C176.537 269.337 176.482 269.374 176.46 269.447C176.445 269.52 176.438 269.744 176.438 270.118C176.438 270.47 176.438 270.76 176.438 270.987C176.438 271.214 176.438 271.361 176.438 271.427C176.445 271.486 176.449 271.537 176.449 271.581C176.449 271.618 176.449 271.647 176.449 271.669C176.449 271.97 176.519 272.204 176.658 272.373C176.797 272.534 176.951 272.63 177.12 272.659C177.296 272.681 177.454 272.71 177.593 272.747C177.732 272.776 177.802 272.828 177.802 272.901C177.802 273.018 177.736 273.077 177.604 273.077C177.597 273.077 177.344 273.062 176.845 273.033C176.346 273.011 176.075 273 176.031 273C175.818 273 175.565 273.007 175.272 273.022C174.979 273.037 174.828 273.044 174.821 273.044C174.667 273.044 174.59 272.985 174.59 272.868C174.59 272.787 174.638 272.732 174.733 272.703C174.828 272.666 174.935 272.641 175.052 272.626C175.169 272.611 175.276 272.531 175.371 272.384C175.466 272.237 175.514 272.028 175.514 271.757C175.514 271.566 175.514 271.053 175.514 270.217C175.521 269.381 175.525 268.739 175.525 268.292C175.525 267.837 175.521 267.423 175.514 267.049C175.514 266.668 175.514 266.462 175.514 266.433C175.514 266.162 175.459 265.956 175.349 265.817C175.239 265.67 175.114 265.59 174.975 265.575C174.843 265.553 174.722 265.527 174.612 265.498C174.502 265.469 174.447 265.417 174.447 265.344ZM176.438 267.104C176.438 267.859 176.442 268.329 176.449 268.512C176.456 268.688 176.482 268.791 176.526 268.82C176.636 268.886 176.794 268.919 176.999 268.919H177.109H177.428C178.051 268.919 178.495 268.776 178.759 268.49C179.03 268.204 179.166 267.837 179.166 267.39C179.166 266.935 178.986 266.521 178.627 266.147C178.275 265.773 177.74 265.586 177.021 265.586C176.75 265.586 176.585 265.659 176.526 265.806C176.467 265.945 176.438 266.275 176.438 266.796V267.104Z" fill="#966F30"/>
<path d="M1 209H116" stroke="#966F30" stroke-width="2" stroke-linecap="round"/>
<path d="M1 272H42" stroke="#966F30" stroke-width="2" stroke-linecap="round"/>
<path d="M161 209L276 209" stroke="#966F30" stroke-width="2" stroke-linecap="round"/>
<path d="M232 272L274 272" stroke="#966F30" stroke-width="2" stroke-linecap="round"/>
<circle cx="139.5" cy="83.5" r="71.5" fill="url(#paint0_radial_18_60)"/>
<path d="M191 84C191 112.167 168.167 135 140 135C111.833 135 89 112.167 89 84C89 55.8335 111.833 33 140 33C168.167 33 191 55.8335 191 84ZM101.731 84C101.731 105.136 118.864 122.269 140 122.269C161.136 122.269 178.269 105.136 178.269 84C178.269 62.8645 161.136 45.7307 140 45.7307C118.864 45.7307 101.731 62.8645 101.731 84Z" fill="url(#paint1_radial_18_60)"/>
<path d="M180 85.7373C180 94.6629 176.562 102.121 171.262 109.191C165.963 116.261 157.739 120.389 149.344 122.664C140.948 124.94 132.056 124.295 124.054 120.829C116.053 117.364 109.392 111.274 105.111 103.508C100.83 95.7427 99.1703 86.7391 100.39 77.9019C101.61 69.0647 105.64 60.8911 111.853 54.6561C118.066 48.4212 126.51 44.3616 135.133 43.321C143.757 42.2804 153.412 43.7248 160.861 48.3112L160.193 49.1477C153.39 44.9591 143.009 45.9666 135.133 46.9169C127.258 47.8672 119.91 51.4706 114.236 57.1647C108.561 62.8589 104.88 70.3236 103.766 78.3943C102.652 86.465 104.169 94.6878 108.078 101.78C111.988 108.872 118.071 114.434 125.378 117.599C132.686 120.763 140.807 121.353 148.474 119.274C156.142 117.196 162.925 112.568 167.765 106.111C172.604 99.6536 180 93.8888 180 85.7373Z" fill="url(#paint2_radial_18_60)"/>
<ellipse cx="141.5" cy="83.5" rx="39.5" ry="40.5" fill="url(#paint3_radial_18_60)"/>
<path d="M140.776 51L113 71.3125L116.584 74.4722L117.48 73.5694L116.584 72.6667L140.776 55.0625L165.416 72.6667L164.52 73.5694L165.864 74.4722L169 71.3125L140.776 51Z" fill="url(#paint4_radial_18_60)"/>
<path d="M118.824 77.1806L117.48 75.8264L141.224 59.5764L164.968 75.8264L164.072 77.1806L140.776 62.7361L118.824 77.1806Z" fill="url(#paint5_radial_18_60)"/>
<path d="M140.776 64.5417L116.584 80.3403H121.96L140.776 68.1528L159.592 80.3403H165.864L140.776 64.5417Z" fill="url(#paint6_radial_18_60)"/>
<path d="M125.096 83.5V82.5972L140.776 73.1181L156.456 82.5972V83.5H151.08L140.776 77.1806L130.472 83.5H125.096Z" fill="url(#paint7_radial_18_60)"/>
<path d="M116.584 81.6944H123.304V83.5H117.928L116.584 82.5972V81.6944Z" fill="url(#paint8_radial_18_60)"/>
<path d="M117.928 84.8542H121.96V111.486H117.928V84.8542Z" fill="url(#paint9_radial_18_60)"/>
<path d="M125.992 84.8542H130.472V111.486H125.992V84.8542Z" fill="url(#paint10_radial_18_60)"/>
<path d="M137.64 80.7917L134.056 83.0486V111.486H137.64V80.7917Z" fill="url(#paint11_radial_18_60)"/>
<path d="M120.168 116L116.136 112.84H140.776H165.864L161.832 116H140.776H120.168Z" fill="url(#paint12_radial_18_60)"/>
<path d="M158.696 83.5V81.6944H164.968V82.5972L164.072 83.5H158.696Z" fill="url(#paint13_radial_18_60)"/>
<path d="M164.072 84.8542H160.04V111.486H164.072V84.8542Z" fill="url(#paint14_radial_18_60)"/>
<path d="M155.56 111.486V84.8542H151.976V111.486H155.56Z" fill="url(#paint15_radial_18_60)"/>
<path d="M144.36 80.7917L147.944 83.0486V111.486H144.36V80.7917Z" fill="url(#paint16_radial_18_60)"/>
<path d="M128.5 178.5C129.976 182.199 130.5 188.5 130.5 188.5C130.5 188.5 127.137 182.213 124.5 178.5C121.851 174.77 120.075 172.888 117 169.5C113.474 165.615 109.96 164.634 107.5 160C106.803 158.687 106 156.5 106 156.5C106 156.5 115.256 162.08 120 167C123.876 171.02 126.431 173.313 128.5 178.5Z" fill="#966F30"/>
<path d="M116 170.5C112.771 167.092 107.5 162 107.5 162C107.5 162 107.553 165.249 108.5 167C109.42 168.7 110.59 169.178 112 170.5C116.474 174.693 124.5 180 124.5 180C124.5 180 119.424 174.114 116 170.5Z" fill="#966F30"/>
<path d="M107.5 168.5C107.565 169.67 107.5 171.5 107.5 171.5C107.5 171.5 105.238 169.807 104 168.5C102.633 167.056 101.657 165.669 100.91 164.242C101.793 166.282 102.5 168 102.5 168V168.5C102.5 168.5 98.4217 165.897 95.5 165C93.4131 164.359 92.1827 164.044 90 164C86.5906 163.932 84.8842 165.58 81.5 166C77.6245 166.481 75.3779 166.461 71.5 166C65.1843 165.249 61.8964 163.384 56 161C49.5236 158.381 45.7559 156.959 40 153C36.6833 150.719 35.2578 148.864 32 146.5C28.8002 144.178 23.5 141 23.5 141C23.5 141 30.1882 140.122 34.5 140C40.7581 139.823 44.3225 139.983 50.5 141C56.4821 141.984 59.8997 142.678 65.5 145C69.3728 146.606 71.4251 147.81 75 150C79.7621 152.917 81.8118 155.465 86.5 158.5C89.733 160.593 95 163.5 95 163.5C95 163.5 84.1798 148.873 75 142C72.1821 139.89 70.4457 138.927 67.5 137C64.7805 135.221 63.2517 134.229 60.5 132.5C53.0142 127.796 47.8233 126.622 41 121C29.5427 111.56 19 90 19 90C19 90 22.5619 92.5907 25 94C30.4623 97.1572 34.5152 96.8821 40 100C45.0925 102.895 47.7148 105.006 52 109C55.6417 112.394 57.5001 114.527 60.5 118.5C62.6212 121.309 65.5 126 65.5 126C65.5 126 58.7007 122.51 54.5 120C44.3077 113.911 30 102 30 102C30 102 41.933 112.675 50 119C57.0384 124.518 61.9756 126.383 68.5 132.5C71.8254 135.618 76.5 141 76.5 141C76.5 141 70.138 132.434 68.5 126C67.3878 121.631 67.5 114.5 67.5 114.5C67.5 114.5 69.545 115.465 70.5 116.5C71.8043 117.913 72.0094 119.141 72.5 121C72.951 122.71 72.6741 123.762 73 125.5C73.7286 129.386 74.8033 131.429 76.5 135C78.1527 138.479 81.5 143.5 81.5 143.5L79.75 140C79.75 140 79.1273 138.979 78.5315 137.675C78.0103 136.654 77.4253 135.47 77 134.5C75.5864 131.276 74.7978 129.429 74 126C73.3741 123.31 73 119 73 119C73 119 77.3852 122.697 78 126C78.3947 128.12 77.5688 129.344 77.5 131.5C77.4626 132.671 77.3486 133.338 77.5 134.5C77.6304 135.501 78.0729 136.671 78.5315 137.675C79.192 138.969 79.75 140 79.75 140C79.75 140 78.239 136.741 78 134.5C77.7072 131.754 79 127.5 79 127.5C79 127.5 82.3638 129.736 83 132C83.531 133.889 82.6022 135.04 82.5 137C82.3882 139.145 82.5 140.352 82.5 142.5C82.5 143.476 82.3662 144.033 82.5 145C82.8717 147.687 86 151 86 151C86 151 84.0492 147.478 83.5 145C82.8241 141.95 83.5 140.124 83.5 137V132.5C83.5 132.5 85.5946 134.444 86.5 136C87.339 137.442 87.5207 138.402 88 140C88.5172 141.724 88.7058 142.724 89 144.5C89.289 146.244 89.1675 147.263 89.5 149C90.6493 155.004 91.5967 159.35 96.5 163C97.0647 163.42 98 164 98 164C98 164 92.0182 155.692 90.5 149.5C89.704 146.254 89.5 141 89.5 141C89.5 141 91.1179 142.438 92 143.5C93.4549 145.252 94.1163 146.401 95 148.5C95.4792 149.638 95.6589 150.313 96 151.5C96.4972 153.23 96.3945 154.305 97 156C97.5874 157.645 98.2462 158.425 99 160C99.2825 160.59 99.5855 161.249 99.8907 161.927C99.1346 159.875 98.6449 157.65 98 155C97.4383 152.692 97 149 97 149C97 149 98.9104 150.433 100 151.5C103.135 154.57 104.515 156.871 106 161C107.011 163.811 107.334 165.518 107.5 168.5Z" fill="#966F30"/>
<path d="M152 178.5C150.524 182.199 150 188.5 150 188.5C150 188.5 153.363 182.213 156 178.5C158.649 174.77 160.425 172.888 163.5 169.5C167.026 165.615 170.54 164.634 173 160C173.697 158.687 174.5 156.5 174.5 156.5C174.5 156.5 165.244 162.08 160.5 167C156.624 171.02 154.069 173.313 152 178.5Z" fill="#966F30"/>
<path d="M164.5 170.5C167.729 167.092 173 162 173 162C173 162 172.947 165.249 172 167C171.08 168.7 169.91 169.178 168.5 170.5C164.026 174.693 156 180 156 180C156 180 161.076 174.114 164.5 170.5Z" fill="#966F30"/>
<path d="M173 168.5C172.935 169.67 173 171.5 173 171.5C173 171.5 175.262 169.807 176.5 168.5C177.867 167.056 178.843 165.669 179.59 164.242C178.707 166.282 178 168 178 168V168.5C178 168.5 182.078 165.897 185 165C187.087 164.359 188.317 164.044 190.5 164C193.909 163.932 195.616 165.58 199 166C202.876 166.481 205.122 166.461 209 166C215.316 165.249 218.604 163.384 224.5 161C230.976 158.381 234.744 156.959 240.5 153C243.817 150.719 245.242 148.864 248.5 146.5C251.7 144.178 257 141 257 141C257 141 250.312 140.122 246 140C239.742 139.823 236.177 139.983 230 141C224.018 141.984 220.6 142.678 215 145C211.127 146.606 209.075 147.81 205.5 150C200.738 152.917 198.688 155.465 194 158.5C190.767 160.593 185.5 163.5 185.5 163.5C185.5 163.5 196.32 148.873 205.5 142C208.318 139.89 210.054 138.927 213 137C215.72 135.221 217.248 134.229 220 132.5C227.486 127.796 232.677 126.622 239.5 121C250.957 111.56 261.5 90 261.5 90C261.5 90 257.938 92.5907 255.5 94C250.038 97.1572 245.985 96.8821 240.5 100C235.407 102.895 232.785 105.006 228.5 109C224.858 112.394 223 114.527 220 118.5C217.879 121.309 215 126 215 126C215 126 221.799 122.51 226 120C236.192 113.911 250.5 102 250.5 102C250.5 102 238.567 112.675 230.5 119C223.462 124.518 218.524 126.383 212 132.5C208.675 135.618 204 141 204 141C204 141 210.362 132.434 212 126C213.112 121.631 213 114.5 213 114.5C213 114.5 210.955 115.465 210 116.5C208.696 117.913 208.491 119.141 208 121C207.549 122.71 207.826 123.762 207.5 125.5C206.771 129.386 205.697 131.429 204 135C202.347 138.479 199 143.5 199 143.5L200.75 140C200.75 140 201.373 138.979 201.969 137.675C202.49 136.654 203.075 135.47 203.5 134.5C204.914 131.276 205.702 129.429 206.5 126C207.126 123.31 207.5 119 207.5 119C207.5 119 203.115 122.697 202.5 126C202.105 128.12 202.931 129.344 203 131.5C203.037 132.671 203.151 133.338 203 134.5C202.87 135.501 202.427 136.671 201.969 137.675C201.308 138.969 200.75 140 200.75 140C200.75 140 202.261 136.741 202.5 134.5C202.793 131.754 201.5 127.5 201.5 127.5C201.5 127.5 198.136 129.736 197.5 132C196.969 133.889 197.898 135.04 198 137C198.112 139.145 198 140.352 198 142.5C198 143.476 198.134 144.033 198 145C197.628 147.687 194.5 151 194.5 151C194.5 151 196.451 147.478 197 145C197.676 141.95 197 140.124 197 137V132.5C197 132.5 194.905 134.444 194 136C193.161 137.442 192.979 138.402 192.5 140C191.983 141.724 191.794 142.724 191.5 144.5C191.211 146.244 191.332 147.263 191 149C189.851 155.004 188.903 159.35 184 163C183.435 163.42 182.5 164 182.5 164C182.5 164 188.482 155.692 190 149.5C190.796 146.254 191 141 191 141C191 141 189.382 142.438 188.5 143.5C187.045 145.252 186.384 146.401 185.5 148.5C185.021 149.638 184.841 150.313 184.5 151.5C184.003 153.23 184.105 154.305 183.5 156C182.913 157.645 182.254 158.425 181.5 160C181.218 160.59 180.915 161.249 180.609 161.927C181.365 159.875 181.855 157.65 182.5 155C183.062 152.692 183.5 149 183.5 149C183.5 149 181.59 150.433 180.5 151.5C177.365 154.57 175.985 156.871 174.5 161C173.489 163.811 173.166 165.518 173 168.5Z" fill="#966F30"/>
<path d="M78.0996 11.2469C93.2381 -2.68433 126.1 0.259882 126.1 0.259882C126.1 0.259882 104.612 6.92877 91.5996 18.2469C78.9215 29.2741 69.1995 36.3881 63.6471 52.2469C59.0587 65.3525 58.5929 78.9144 59.6471 92.7599C60.4758 103.644 65.0996 120.26 65.0996 120.26C65.0996 120.26 63.3265 113.888 59.6471 108.26C52.0787 96.6822 39.1696 95.6759 33.0996 83.2469C28.1675 73.1479 30.5996 49.2469 30.5996 49.2469C30.5996 49.2469 34.471 65.5484 39.0996 72.7469C46.1468 83.7068 56.2687 98.7599 56.2687 98.7599C56.2687 98.7599 39.8486 70.8158 42.5996 52.2469C44.6482 38.4192 57.5996 21.2599 57.5996 21.2599C57.5996 21.2599 53.3336 42.7809 53.0996 49.2469C52.7107 59.9953 56.2687 75.7469 56.2687 75.7469C56.2687 75.7469 57.0996 30.5722 78.0996 11.2469Z" fill="url(#paint17_radial_18_60)"/>
<path d="M77.5 21C86.1769 11.7372 105 4.5 105 4.5C105 4.5 86.626 12.3634 78 21.5C70.1838 29.7789 63 47 63 47C63 47 69.6161 29.4162 77.5 21Z" fill="#966F30"/>
<path d="M47.5 57C47.5 46.802 53 33 53 33C53 33 48 47.2918 48 57C48 68.5 53.5 79.5 53.5 79.5C53.5 79.5 47.5 69 47.5 57Z" fill="#966F30"/>
<path d="M38 82C33.0452 73.0865 31.2442 59.243 31.2442 59.243C31.2442 59.243 33.7831 73.0147 38.5 81.5C44.0874 91.5515 51.5 96.5 51.5 96.5C51.5 96.5 43.8303 92.4884 38 82Z" fill="#966F30"/>
<path d="M202 11.2469C186.862 -2.68433 154 0.259882 154 0.259882C154 0.259882 175.487 6.92877 188.5 18.2469C201.178 29.2741 210.9 36.3881 216.452 52.2469C221.041 65.3525 221.507 78.9144 220.452 92.7599C219.624 103.644 215 120.26 215 120.26C215 120.26 216.773 113.888 220.452 108.26C228.021 96.6822 240.93 95.6759 247 83.2469C251.932 73.1479 249.5 49.2469 249.5 49.2469C249.5 49.2469 245.629 65.5484 241 72.7469C233.953 83.7068 223.831 98.7599 223.831 98.7599C223.831 98.7599 240.251 70.8158 237.5 52.2469C235.451 38.4192 222.5 21.2599 222.5 21.2599C222.5 21.2599 226.766 42.7809 227 49.2469C227.389 59.9953 223.831 75.7469 223.831 75.7469C223.831 75.7469 223 30.5722 202 11.2469Z" fill="url(#paint18_radial_18_60)"/>
<path d="M202.6 21C193.923 11.7372 175.1 4.5 175.1 4.5C175.1 4.5 193.474 12.3634 202.1 21.5C209.916 29.7789 217.1 47 217.1 47C217.1 47 210.483 29.4162 202.6 21Z" fill="#966F30"/>
<path d="M232.6 57C232.6 46.802 227.1 33 227.1 33C227.1 33 232.1 47.2918 232.1 57C232.1 68.5 226.6 79.5 226.6 79.5C226.6 79.5 232.6 69 232.6 57Z" fill="#966F30"/>
<path d="M242.1 82C247.054 73.0865 248.855 59.243 248.855 59.243C248.855 59.243 246.316 73.0147 241.6 81.5C236.012 91.5515 228.6 96.5 228.6 96.5C228.6 96.5 236.269 92.4884 242.1 82Z" fill="#966F30"/>
<defs>
<radialGradient id="paint0_radial_18_60" cx="0" cy="0" r="1" gradientUnits="userSpaceOnUse" gradientTransform="translate(71 12) rotate(46.0247) scale(217.47)">
<stop stop-color="#ECE5D6"/>
<stop offset="1" stop-color="#BFB3A1"/>
</radialGradient>
<radialGradient id="paint1_radial_18_60" cx="0" cy="0" r="1" gradientUnits="userSpaceOnUse" gradientTransform="translate(108 44) rotate(48.7357) scale(103.103)">
<stop stop-color="#F0DDA4"/>
<stop offset="1" stop-color="#9D783C"/>
</radialGradient>
<radialGradient id="paint2_radial_18_60" cx="0" cy="0" r="1" gradientUnits="userSpaceOnUse" gradientTransform="translate(116.495 51.5401) rotate(49.5184) scale(80.7544 80.435)">
<stop stop-color="#232B1C"/>
<stop offset="1" stop-color="#242E17"/>
</radialGradient>
<radialGradient id="paint3_radial_18_60" cx="0" cy="0" r="1" gradientUnits="userSpaceOnUse" gradientTransform="translate(116.716 51.7353) rotate(49.4446) scale(81.0028 80.7152)">
<stop stop-color="#4E5F40"/>
<stop offset="1" stop-color="#242E17"/>
</radialGradient>
<radialGradient id="paint4_radial_18_60" cx="0" cy="0" r="1" gradientUnits="userSpaceOnUse" gradientTransform="translate(123.304 68.6042) rotate(46.731) scale(60.132 52.1757)">
<stop stop-color="#EFE0B0"/>
<stop offset="1" stop-color="#856326"/>
</radialGradient>
<radialGradient id="paint5_radial_18_60" cx="0" cy="0" r="1" gradientUnits="userSpaceOnUse" gradientTransform="translate(123.304 68.6042) rotate(46.731) scale(60.132 52.1757)">
<stop stop-color="#EFE0B0"/>
<stop offset="1" stop-color="#856326"/>
</radialGradient>
<radialGradient id="paint6_radial_18_60" cx="0" cy="0" r="1" gradientUnits="userSpaceOnUse" gradientTransform="translate(123.304 68.6042) rotate(46.731) scale(60.132 52.1757)">
<stop stop-color="#EFE0B0"/>
<stop offset="1" stop-color="#856326"/>
</radialGradient>
<radialGradient id="paint7_radial_18_60" cx="0" cy="0" r="1" gradientUnits="userSpaceOnUse" gradientTransform="translate(123.304 68.6042) rotate(46.731) scale(60.132 52.1757)">
<stop stop-color="#EFE0B0"/>
<stop offset="1" stop-color="#856326"/>
</radialGradient>
<radialGradient id="paint8_radial_18_60" cx="0" cy="0" r="1" gradientUnits="userSpaceOnUse" gradientTransform="translate(123.304 68.6042) rotate(46.731) scale(60.132 52.1757)">
<stop stop-color="#EFE0B0"/>
<stop offset="1" stop-color="#856326"/>
</radialGradient>
<radialGradient id="paint9_radial_18_60" cx="0" cy="0" r="1" gradientUnits="userSpaceOnUse" gradientTransform="translate(123.304 68.6042) rotate(46.731) scale(60.132 52.1757)">
<stop stop-color="#EFE0B0"/>
<stop offset="1" stop-color="#856326"/>
</radialGradient>
<radialGradient id="paint10_radial_18_60" cx="0" cy="0" r="1" gradientUnits="userSpaceOnUse" gradientTransform="translate(123.304 68.6042) rotate(46.731) scale(60.132 52.1757)">
<stop stop-color="#EFE0B0"/>
<stop offset="1" stop-color="#856326"/>
</radialGradient>
<radialGradient id="paint11_radial_18_60" cx="0" cy="0" r="1" gradientUnits="userSpaceOnUse" gradientTransform="translate(123.304 68.6042) rotate(46.731) scale(60.132 52.1757)">
<stop stop-color="#EFE0B0"/>
<stop offset="1" stop-color="#856326"/>
</radialGradient>
<radialGradient id="paint12_radial_18_60" cx="0" cy="0" r="1" gradientUnits="userSpaceOnUse" gradientTransform="translate(123.304 68.6042) rotate(46.731) scale(60.132 52.1757)">
<stop stop-color="#EFE0B0"/>
<stop offset="1" stop-color="#856326"/>
</radialGradient>
<radialGradient id="paint13_radial_18_60" cx="0" cy="0" r="1" gradientUnits="userSpaceOnUse" gradientTransform="translate(123.304 68.6042) rotate(46.731) scale(60.132 52.1757)">
<stop stop-color="#EFE0B0"/>
<stop offset="1" stop-color="#856326"/>
</radialGradient>
<radialGradient id="paint14_radial_18_60" cx="0" cy="0" r="1" gradientUnits="userSpaceOnUse" gradientTransform="translate(123.304 68.6042) rotate(46.731) scale(60.132 52.1757)">
<stop stop-color="#EFE0B0"/>
<stop offset="1" stop-color="#856326"/>
</radialGradient>
<radialGradient id="paint15_radial_18_60" cx="0" cy="0" r="1" gradientUnits="userSpaceOnUse" gradientTransform="translate(123.304 68.6042) rotate(46.731) scale(60.132 52.1757)">
<stop stop-color="#EFE0B0"/>
<stop offset="1" stop-color="#856326"/>
</radialGradient>
<radialGradient id="paint16_radial_18_60" cx="0" cy="0" r="1" gradientUnits="userSpaceOnUse" gradientTransform="translate(123.304 68.6042) rotate(46.731) scale(60.132 52.1757)">
<stop stop-color="#EFE0B0"/>
<stop offset="1" stop-color="#856326"/>
</radialGradient>
<radialGradient id="paint17_radial_18_60" cx="0" cy="0" r="1" gradientUnits="userSpaceOnUse" gradientTransform="translate(63.0996 116.76) rotate(-74.9059) scale(124.806 102.954)">
<stop stop-color="#AC9461"/>
<stop offset="1" stop-color="#DAC9A1"/>
</radialGradient>
<radialGradient id="paint18_radial_18_60" cx="0" cy="0" r="1" gradientUnits="userSpaceOnUse" gradientTransform="translate(217 116.76) rotate(-105.094) scale(124.806 102.954)">
<stop stop-color="#AC9461"/>
<stop offset="1" stop-color="#DAC9A1"/>
</radialGradient>
</defs>
</svg>
