<svg width="215" height="58" viewBox="0 0 215 58" fill="none" xmlns="http://www.w3.org/2000/svg">
<path d="M0.68 10.2C0.68 9.996 0.770667 9.88267 0.952 9.86C1.156 9.81467 1.64333 9.792 2.414 9.792H5.372C5.93867 9.792 6.98133 9.76933 8.5 9.724C10.0187 9.67867 11.186 9.656 12.002 9.656C13.566 9.656 15.13 9.894 16.694 10.37C18.258 10.846 19.6973 11.5373 21.012 12.444C22.3267 13.328 23.392 14.4953 24.208 15.946C25.024 17.374 25.432 18.972 25.432 20.74C25.432 22.3267 25.3187 23.7093 25.092 24.888C24.888 26.044 24.5367 27.0527 24.038 27.914C23.5393 28.7527 23.0407 29.444 22.542 29.988C22.0433 30.5093 21.3633 31.1327 20.502 31.858C19.822 32.402 18.836 32.912 17.544 33.388C16.252 33.864 14.926 34.102 13.566 34.102C13.43 34.102 12.274 34.068 10.098 34C7.922 33.9547 6.358 33.932 5.406 33.932C4.61267 33.932 3.876 33.9547 3.196 34C2.516 34.068 2.11933 34.102 2.006 34.102C1.462 34.102 1.19 33.9547 1.19 33.66C1.19 33.4787 1.224 33.354 1.292 33.286C1.38267 33.1953 1.55267 33.116 1.802 33.048C2.074 32.98 2.26667 32.9233 2.38 32.878C2.74267 32.7193 3.07133 32.4247 3.366 31.994C3.68333 31.5407 3.842 31.0987 3.842 30.668C3.842 29.3987 3.842 27.778 3.842 25.806C3.86467 23.834 3.876 22.3833 3.876 21.454C3.876 20.638 3.86467 19.3687 3.842 17.646C3.842 15.9007 3.842 14.2913 3.842 12.818C3.842 12.4327 3.64933 12.0473 3.264 11.662C2.90133 11.254 2.49333 11.0387 2.04 11.016C1.72267 10.9933 1.48467 10.9707 1.326 10.948C1.19 10.9253 1.04267 10.8573 0.884 10.744C0.748 10.608 0.68 10.4267 0.68 10.2ZM6.698 29.206C6.698 29.6367 6.698 29.988 6.698 30.26C6.72067 30.532 6.766 30.7813 6.834 31.008C6.92467 31.2347 6.99267 31.3933 7.038 31.484C7.08333 31.5747 7.21933 31.6767 7.446 31.79C7.67267 31.9033 7.84267 31.9827 7.956 32.028C8.092 32.0507 8.364 32.1187 8.772 32.232C9.18 32.3453 9.52 32.436 9.792 32.504C10.5853 32.7307 11.4127 32.844 12.274 32.844H12.954C14.4953 32.844 15.81 32.6287 16.898 32.198C17.986 31.7447 19.0287 31.042 20.026 30.09C21.7033 28.4807 22.542 25.874 22.542 22.27C22.542 20.4567 22.1793 18.8133 21.454 17.34C20.7513 15.8667 19.822 14.6993 18.666 13.838C17.51 12.954 16.2633 12.2853 14.926 11.832C13.5887 11.356 12.24 11.118 10.88 11.118C10.268 11.118 9.81467 11.118 9.52 11.118C9.248 11.118 8.91933 11.152 8.534 11.22C8.17133 11.2653 7.922 11.3107 7.786 11.356C7.67267 11.3787 7.52533 11.492 7.344 11.696C7.16267 11.8773 7.04933 12.036 7.004 12.172C6.98133 12.308 6.936 12.58 6.868 12.988C6.82267 13.3733 6.8 13.7133 6.8 14.008C6.8 14.3027 6.8 14.7787 6.8 15.436C6.8 15.9347 6.78867 17.1133 6.766 18.972C6.74333 20.808 6.732 21.8053 6.732 21.964C6.732 23.324 6.72067 24.7973 6.698 26.384C6.698 27.9707 6.698 28.9113 6.698 29.206ZM35.4277 10.234C35.4277 9.91666 35.7451 9.758 36.3797 9.758C36.4704 9.758 36.6177 9.76933 36.8217 9.792C37.0257 9.81467 37.1844 9.826 37.2977 9.826C37.3657 9.826 38.4311 9.86 40.4937 9.928C42.5564 9.97333 44.2564 9.996 45.5937 9.996C46.0697 9.996 47.2371 9.97333 49.0957 9.928C50.9771 9.88267 52.0764 9.86 52.3937 9.86C52.8244 9.86 53.0397 10.1207 53.0397 10.642C53.0397 10.778 52.9717 11.2313 52.8357 12.002C52.6997 12.75 52.6317 13.4527 52.6317 14.11C52.6317 14.314 52.5751 14.4953 52.4617 14.654C52.3484 14.79 52.2237 14.858 52.0877 14.858C51.7477 14.858 51.5777 14.62 51.5777 14.144C51.5777 13.532 51.3851 12.9767 50.9997 12.478C50.6144 11.9793 50.1384 11.7187 49.5717 11.696C47.5317 11.5373 45.9677 11.458 44.8797 11.458H43.9957C42.8171 11.458 42.1257 11.5487 41.9217 11.73C41.7404 11.8887 41.6271 12.4893 41.5817 13.532C41.4911 15.164 41.4457 17.0567 41.4457 19.21C41.4457 20.3433 41.6611 20.9213 42.0917 20.944H42.9417H44.3697H45.4237C46.7837 20.944 47.6904 20.8987 48.1437 20.808C48.5971 20.7173 49.0051 20.5473 49.3677 20.298C49.7984 20.0033 50.0591 19.584 50.1497 19.04C50.2177 18.6547 50.3764 18.462 50.6257 18.462C50.8297 18.462 50.9544 18.496 50.9997 18.564C51.0451 18.632 51.0677 18.7793 51.0677 19.006C51.0677 19.1647 51.0224 19.686 50.9317 20.57C50.8411 21.454 50.7957 22.1227 50.7957 22.576C50.7957 23.0067 50.8071 23.4147 50.8297 23.8C50.8751 24.1853 50.8977 24.4687 50.8977 24.65C50.8977 25.2167 50.8184 25.5 50.6597 25.5C50.3197 25.5 50.0704 25.228 49.9117 24.684C49.5944 23.732 49.3111 23.1767 49.0617 23.018C48.5857 22.7007 47.4977 22.542 45.7977 22.542C45.1177 22.542 44.5624 22.542 44.1317 22.542C43.7237 22.542 43.4517 22.542 43.3157 22.542C43.2024 22.5193 43.1004 22.508 43.0097 22.508C42.9417 22.508 42.8737 22.508 42.8057 22.508C41.8764 22.508 41.4117 22.7233 41.4117 23.154C41.4117 23.8113 41.4004 24.6387 41.3777 25.636C41.3551 26.6107 41.3437 27.4153 41.3437 28.05V29.41C41.3437 31.042 41.6157 31.9373 42.1597 32.096C42.7264 32.2773 43.2137 32.368 43.6217 32.368C45.3217 32.368 46.8064 32.2887 48.0757 32.13C49.3677 31.9713 50.3311 31.7787 50.9657 31.552C51.6231 31.3027 52.1671 31.042 52.5977 30.77C53.0284 30.4753 53.3004 30.2147 53.4137 29.988C53.5497 29.7387 53.6744 29.5347 53.7877 29.376C53.9237 29.2173 54.0597 29.138 54.1957 29.138C54.4677 29.138 54.6037 29.3307 54.6037 29.716C54.6037 30.6907 54.1164 31.6767 53.1417 32.674C52.1671 33.6713 51.3171 34.17 50.5917 34.17C48.9597 34.17 47.1124 34.1133 45.0497 34C43.0097 33.8867 41.7404 33.83 41.2417 33.83C40.6071 33.83 39.8137 33.8867 38.8617 34C37.9097 34.0907 37.1617 34.136 36.6177 34.136C36.1417 34.136 35.9037 34.0227 35.9037 33.796C35.9037 33.592 35.9037 33.456 35.9037 33.388C35.9037 33.32 35.9377 33.2633 36.0057 33.218C36.0737 33.1727 36.1417 33.15 36.2097 33.15C36.3004 33.1273 36.4477 33.082 36.6517 33.014C36.8784 32.946 37.1164 32.8553 37.3657 32.742C37.9097 32.47 38.2611 31.9373 38.4197 31.144C38.6011 30.3507 38.6917 28.6847 38.6917 26.146V21.93C38.6917 21.318 38.7031 20.366 38.7257 19.074C38.7711 17.782 38.7937 16.7733 38.7937 16.048C38.7937 15.436 38.7711 14.4047 38.7257 12.954C38.7031 12.2967 38.4197 11.7867 37.8757 11.424C37.3317 11.0613 36.6971 10.8687 35.9717 10.846C35.6091 10.846 35.4277 10.642 35.4277 10.234ZM63.7673 10.37C63.7673 10.03 63.9713 9.86 64.3793 9.86C64.5153 9.86 64.8213 9.88267 65.2973 9.928C65.7959 9.97333 66.0906 9.996 66.1813 9.996C66.5213 9.996 66.9859 9.98467 67.5753 9.962C68.1646 9.93933 68.5499 9.928 68.7313 9.928C69.1619 9.928 69.4339 10.0867 69.5473 10.404C69.8193 10.9933 70.3066 12.0587 71.0093 13.6C71.7119 15.1187 72.2673 16.3313 72.6753 17.238C73.1059 18.1447 73.6499 19.3007 74.3073 20.706C74.9646 22.1113 75.4973 23.256 75.9053 24.14C76.3133 25.0013 76.7326 25.874 77.1633 26.758C77.6166 27.642 77.9566 28.2993 78.1833 28.73C78.4326 29.138 78.5913 29.342 78.6593 29.342C78.7273 29.342 78.7953 29.308 78.8633 29.24C78.9539 29.1493 79.0333 29.036 79.1013 28.9C79.1919 28.764 79.2599 28.628 79.3053 28.492C79.3733 28.356 79.4526 28.186 79.5433 27.982C79.6566 27.7553 79.7359 27.5853 79.7813 27.472L84.1673 18.428C84.6659 17.408 85.1079 16.49 85.4933 15.674C85.8786 14.858 86.1846 14.2007 86.4113 13.702C86.6379 13.2033 86.8306 12.7727 86.9893 12.41C87.1479 12.0473 87.2613 11.7753 87.3293 11.594C87.4199 11.4127 87.4766 11.2767 87.4993 11.186C87.5446 11.0727 87.5786 10.9933 87.6013 10.948C87.6239 10.88 87.6466 10.8233 87.6693 10.778C87.6919 10.7327 87.7259 10.6307 87.7713 10.472C87.8393 10.3133 87.8959 10.2113 87.9413 10.166C88.0093 10.098 88.1226 10.03 88.2813 9.962C88.4626 9.894 88.6893 9.86 88.9613 9.86C89.3919 9.86 89.7886 9.87133 90.1513 9.894C90.5366 9.91667 91.1146 9.928 91.8853 9.928C92.2706 9.928 92.4633 10.0753 92.4633 10.37C92.4633 10.5967 92.3839 10.7667 92.2253 10.88C92.0893 10.9707 91.7946 11.05 91.3413 11.118C90.7746 11.186 90.3779 11.4693 90.1513 11.968C89.9246 12.4667 89.8113 13.4187 89.8113 14.824C89.8113 17.884 89.8793 20.6607 90.0153 23.154C90.1513 25.6247 90.2193 27.1773 90.2193 27.812C90.2193 30.0787 90.4006 31.5293 90.7633 32.164C91.1259 32.776 91.8853 33.082 93.0413 33.082C93.1999 33.082 93.3359 33.1387 93.4493 33.252C93.5853 33.3653 93.6533 33.4673 93.6533 33.558C93.6533 33.694 93.6419 33.796 93.6193 33.864C93.5966 33.932 93.5513 33.9887 93.4833 34.034C93.4153 34.0793 93.3473 34.102 93.2793 34.102C93.2113 34.102 93.0866 34.102 92.9053 34.102C92.2253 34.102 91.5566 34.0793 90.8993 34.034C90.2419 33.9887 89.7546 33.966 89.4373 33.966C88.8026 33.966 88.1453 33.9887 87.4653 34.034C86.7853 34.102 86.2639 34.136 85.9013 34.136C85.4933 34.136 85.2893 33.9773 85.2893 33.66C85.2893 33.456 85.3799 33.3087 85.5613 33.218C85.7426 33.1273 85.9466 33.0707 86.1733 33.048C86.4226 33.0253 86.6719 32.8893 86.9213 32.64C87.1933 32.368 87.3859 31.9713 87.4993 31.45C87.5899 30.9967 87.6353 30.2713 87.6353 29.274C87.6353 28.5487 87.6126 27.676 87.5673 26.656C87.5446 25.636 87.5106 24.65 87.4653 23.698C87.4199 22.7233 87.3746 21.8167 87.3293 20.978C87.2839 20.1167 87.2499 19.414 87.2273 18.87L87.1593 18.054C87.1593 17.0793 87.0573 16.592 86.8533 16.592C86.8306 16.592 86.7966 16.6033 86.7513 16.626C86.7059 16.6487 86.6606 16.6827 86.6153 16.728C86.5926 16.7733 86.5586 16.8187 86.5133 16.864C86.4679 16.9093 86.4226 16.9887 86.3773 17.102C86.3319 17.1927 86.2866 17.272 86.2413 17.34C86.1959 17.408 86.1393 17.51 86.0713 17.646C86.0033 17.7593 85.9466 17.8613 85.9013 17.952C85.8559 18.0427 85.7879 18.1673 85.6973 18.326C85.6293 18.4847 85.5726 18.6207 85.5273 18.734L80.8013 28.288C80.2573 29.3987 79.6793 30.5887 79.0673 31.858C78.6593 32.7193 78.4099 33.2293 78.3193 33.388C78.2286 33.524 78.1153 33.592 77.9793 33.592C77.7753 33.592 77.6053 33.5013 77.4693 33.32C77.3333 33.116 77.1293 32.6853 76.8573 32.028C76.5853 31.3707 76.3473 30.8267 76.1433 30.396C71.9953 21.964 69.8646 17.6687 69.7513 17.51C69.6833 17.4193 69.6153 17.374 69.5473 17.374C69.3659 17.374 69.2753 17.8273 69.2753 18.734C69.2526 20.502 69.1959 22.2473 69.1053 23.97C69.0146 25.6927 68.9693 26.9393 68.9693 27.71V29.24C68.9693 29.8293 68.9806 30.2827 69.0033 30.6C69.0486 30.9173 69.1393 31.2913 69.2753 31.722C69.4339 32.13 69.7059 32.4473 70.0913 32.674C70.4766 32.9007 70.9753 33.048 71.5873 33.116C71.7006 33.116 71.8026 33.1613 71.8933 33.252C72.0066 33.32 72.0633 33.3993 72.0633 33.49C72.0633 33.7393 72.0293 33.9093 71.9613 34C71.8933 34.068 71.7573 34.102 71.5533 34.102C71.0999 34.102 70.4199 34.0793 69.5133 34.034C68.6066 33.9887 68.1079 33.966 68.0173 33.966C67.9719 33.966 67.6433 33.9773 67.0313 34C66.4193 34.0453 65.8186 34.068 65.2293 34.068C65.0479 34.068 64.9119 34.0567 64.8213 34.034C64.7533 34.0113 64.6853 33.966 64.6173 33.898C64.5493 33.8073 64.5153 33.6827 64.5153 33.524C64.5153 33.3427 64.6173 33.218 64.8213 33.15C65.0253 33.082 65.2519 33.048 65.5013 33.048C65.7733 33.0253 66.0679 32.844 66.3853 32.504C66.7026 32.1413 66.9406 31.62 67.0993 30.94C67.2126 30.4413 67.3486 28.4693 67.5073 25.024C67.6659 21.5787 67.7453 19.0287 67.7453 17.374C67.7453 15.1073 67.5186 13.5433 67.0653 12.682C66.6346 11.8207 65.6826 11.22 64.2093 10.88C63.9146 10.812 63.7673 10.642 63.7673 10.37ZM102.831 10.234C102.831 9.91666 103.149 9.758 103.783 9.758C103.874 9.758 104.021 9.76933 104.225 9.792C104.429 9.81467 104.588 9.826 104.701 9.826C104.769 9.826 105.835 9.86 107.897 9.928C109.96 9.97333 111.66 9.996 112.997 9.996C113.473 9.996 114.641 9.97333 116.499 9.928C118.381 9.88267 119.48 9.86 119.797 9.86C120.228 9.86 120.443 10.1207 120.443 10.642C120.443 10.778 120.375 11.2313 120.239 12.002C120.103 12.75 120.035 13.4527 120.035 14.11C120.035 14.314 119.979 14.4953 119.865 14.654C119.752 14.79 119.627 14.858 119.491 14.858C119.151 14.858 118.981 14.62 118.981 14.144C118.981 13.532 118.789 12.9767 118.403 12.478C118.018 11.9793 117.542 11.7187 116.975 11.696C114.935 11.5373 113.371 11.458 112.283 11.458H111.399C110.221 11.458 109.529 11.5487 109.325 11.73C109.144 11.8887 109.031 12.4893 108.985 13.532C108.895 15.164 108.849 17.0567 108.849 19.21C108.849 20.3433 109.065 20.9213 109.495 20.944H110.345H111.773H112.827C114.187 20.944 115.094 20.8987 115.547 20.808C116.001 20.7173 116.409 20.5473 116.771 20.298C117.202 20.0033 117.463 19.584 117.553 19.04C117.621 18.6547 117.78 18.462 118.029 18.462C118.233 18.462 118.358 18.496 118.403 18.564C118.449 18.632 118.471 18.7793 118.471 19.006C118.471 19.1647 118.426 19.686 118.335 20.57C118.245 21.454 118.199 22.1227 118.199 22.576C118.199 23.0067 118.211 23.4147 118.233 23.8C118.279 24.1853 118.301 24.4687 118.301 24.65C118.301 25.2167 118.222 25.5 118.063 25.5C117.723 25.5 117.474 25.228 117.315 24.684C116.998 23.732 116.715 23.1767 116.465 23.018C115.989 22.7007 114.901 22.542 113.201 22.542C112.521 22.542 111.966 22.542 111.535 22.542C111.127 22.542 110.855 22.542 110.719 22.542C110.606 22.5193 110.504 22.508 110.413 22.508C110.345 22.508 110.277 22.508 110.209 22.508C109.28 22.508 108.815 22.7233 108.815 23.154C108.815 23.8113 108.804 24.6387 108.781 25.636C108.759 26.6107 108.747 27.4153 108.747 28.05V29.41C108.747 31.042 109.019 31.9373 109.563 32.096C110.13 32.2773 110.617 32.368 111.025 32.368C112.725 32.368 114.21 32.2887 115.479 32.13C116.771 31.9713 117.735 31.7787 118.369 31.552C119.027 31.3027 119.571 31.042 120.001 30.77C120.432 30.4753 120.704 30.2147 120.817 29.988C120.953 29.7387 121.078 29.5347 121.191 29.376C121.327 29.2173 121.463 29.138 121.599 29.138C121.871 29.138 122.007 29.3307 122.007 29.716C122.007 30.6907 121.52 31.6767 120.545 32.674C119.571 33.6713 118.721 34.17 117.995 34.17C116.363 34.17 114.516 34.1133 112.453 34C110.413 33.8867 109.144 33.83 108.645 33.83C108.011 33.83 107.217 33.8867 106.265 34C105.313 34.0907 104.565 34.136 104.021 34.136C103.545 34.136 103.307 34.0227 103.307 33.796C103.307 33.592 103.307 33.456 103.307 33.388C103.307 33.32 103.341 33.2633 103.409 33.218C103.477 33.1727 103.545 33.15 103.613 33.15C103.704 33.1273 103.851 33.082 104.055 33.014C104.282 32.946 104.52 32.8553 104.769 32.742C105.313 32.47 105.665 31.9373 105.823 31.144C106.005 30.3507 106.095 28.6847 106.095 26.146V21.93C106.095 21.318 106.107 20.366 106.129 19.074C106.175 17.782 106.197 16.7733 106.197 16.048C106.197 15.436 106.175 14.4047 106.129 12.954C106.107 12.2967 105.823 11.7867 105.279 11.424C104.735 11.0613 104.101 10.8687 103.375 10.846C103.013 10.846 102.831 10.642 102.831 10.234ZM131.171 14.28C131.171 13.3733 131.284 12.206 131.511 10.778C131.511 10.7327 131.511 10.6533 131.511 10.54C131.534 10.4267 131.545 10.3587 131.545 10.336C131.568 10.2907 131.579 10.234 131.579 10.166C131.602 10.0753 131.624 10.0187 131.647 9.996C131.67 9.95067 131.692 9.90533 131.715 9.86C131.76 9.792 131.806 9.74666 131.851 9.724C131.896 9.70133 131.953 9.67867 132.021 9.656C132.089 9.63333 132.168 9.622 132.259 9.622C132.35 9.59933 132.452 9.588 132.565 9.588C132.928 9.588 133.88 9.63333 135.421 9.724C136.985 9.81467 139.229 9.86 142.153 9.86C147.14 9.86 150.63 9.80333 152.625 9.69C152.648 9.69 152.682 9.69 152.727 9.69C152.795 9.66733 152.84 9.656 152.863 9.656C153.112 9.656 153.282 9.724 153.373 9.86C153.464 9.996 153.509 10.1207 153.509 10.234C153.509 10.3927 153.543 10.8687 153.611 11.662C153.679 12.4553 153.713 12.8973 153.713 12.988C153.713 13.5547 153.679 13.9173 153.611 14.076C153.543 14.212 153.396 14.28 153.169 14.28C152.988 14.28 152.863 14.144 152.795 13.872C152.614 13.2147 152.455 12.7727 152.319 12.546C152.183 12.2967 151.888 12.0813 151.435 11.9C150.982 11.7187 150.29 11.628 149.361 11.628H144.941C144.397 11.628 144.057 11.7413 143.921 11.968C143.808 12.172 143.751 12.784 143.751 13.804V15.47C143.751 18.5073 143.728 21.182 143.683 23.494C143.66 25.806 143.649 27.2793 143.649 27.914C143.649 28.2313 143.638 28.6393 143.615 29.138C143.615 29.614 143.615 29.9427 143.615 30.124C143.615 31.0987 143.774 31.7447 144.091 32.062C144.386 32.334 144.714 32.5493 145.077 32.708C145.44 32.844 145.746 32.9233 145.995 32.946C146.267 32.9687 146.494 33.0253 146.675 33.116C146.856 33.2067 146.947 33.354 146.947 33.558C146.947 33.8073 146.89 33.966 146.777 34.034C146.664 34.102 146.448 34.136 146.131 34.136C145.859 34.136 145.258 34.0907 144.329 34C143.4 33.9093 142.742 33.864 142.357 33.864C142.085 33.864 141.53 33.9093 140.691 34C139.875 34.068 139.274 34.102 138.889 34.102C138.05 34.102 137.631 33.9207 137.631 33.558C137.631 33.3313 137.699 33.184 137.835 33.116C137.971 33.0253 138.232 32.9573 138.617 32.912C139.025 32.844 139.286 32.7987 139.399 32.776C140.17 32.5947 140.6 32.1413 140.691 31.416C140.918 29.4213 141.031 25.1373 141.031 18.564L140.997 12.478C140.997 12.0473 140.872 11.7867 140.623 11.696C140.374 11.5827 139.637 11.526 138.413 11.526C136.826 11.526 135.625 11.5713 134.809 11.662C134.016 11.7527 133.551 11.8433 133.415 11.934C133.279 12.002 133.12 12.1493 132.939 12.376C132.735 12.648 132.565 12.954 132.429 13.294C132.316 13.6113 132.236 13.8833 132.191 14.11C132.168 14.314 132.1 14.4953 131.987 14.654C131.896 14.79 131.749 14.858 131.545 14.858C131.296 14.858 131.171 14.6653 131.171 14.28ZM162.897 10.234C162.897 9.91666 163.215 9.758 163.849 9.758C163.94 9.758 164.087 9.76933 164.291 9.792C164.495 9.81467 164.654 9.826 164.767 9.826C164.835 9.826 165.901 9.86 167.963 9.928C170.026 9.97333 171.726 9.996 173.063 9.996C173.539 9.996 174.707 9.97333 176.565 9.928C178.447 9.88267 179.546 9.86 179.863 9.86C180.294 9.86 180.509 10.1207 180.509 10.642C180.509 10.778 180.441 11.2313 180.305 12.002C180.169 12.75 180.101 13.4527 180.101 14.11C180.101 14.314 180.045 14.4953 179.931 14.654C179.818 14.79 179.693 14.858 179.557 14.858C179.217 14.858 179.047 14.62 179.047 14.144C179.047 13.532 178.855 12.9767 178.469 12.478C178.084 11.9793 177.608 11.7187 177.041 11.696C175.001 11.5373 173.437 11.458 172.349 11.458H171.465C170.287 11.458 169.595 11.5487 169.391 11.73C169.21 11.8887 169.097 12.4893 169.051 13.532C168.961 15.164 168.915 17.0567 168.915 19.21C168.915 20.3433 169.131 20.9213 169.561 20.944H170.411H171.839H172.893C174.253 20.944 175.16 20.8987 175.613 20.808C176.067 20.7173 176.475 20.5473 176.837 20.298C177.268 20.0033 177.529 19.584 177.619 19.04C177.687 18.6547 177.846 18.462 178.095 18.462C178.299 18.462 178.424 18.496 178.469 18.564C178.515 18.632 178.537 18.7793 178.537 19.006C178.537 19.1647 178.492 19.686 178.401 20.57C178.311 21.454 178.265 22.1227 178.265 22.576C178.265 23.0067 178.277 23.4147 178.299 23.8C178.345 24.1853 178.367 24.4687 178.367 24.65C178.367 25.2167 178.288 25.5 178.129 25.5C177.789 25.5 177.54 25.228 177.381 24.684C177.064 23.732 176.781 23.1767 176.531 23.018C176.055 22.7007 174.967 22.542 173.267 22.542C172.587 22.542 172.032 22.542 171.601 22.542C171.193 22.542 170.921 22.542 170.785 22.542C170.672 22.5193 170.57 22.508 170.479 22.508C170.411 22.508 170.343 22.508 170.275 22.508C169.346 22.508 168.881 22.7233 168.881 23.154C168.881 23.8113 168.87 24.6387 168.847 25.636C168.825 26.6107 168.813 27.4153 168.813 28.05V29.41C168.813 31.042 169.085 31.9373 169.629 32.096C170.196 32.2773 170.683 32.368 171.091 32.368C172.791 32.368 174.276 32.2887 175.545 32.13C176.837 31.9713 177.801 31.7787 178.435 31.552C179.093 31.3027 179.637 31.042 180.067 30.77C180.498 30.4753 180.77 30.2147 180.883 29.988C181.019 29.7387 181.144 29.5347 181.257 29.376C181.393 29.2173 181.529 29.138 181.665 29.138C181.937 29.138 182.073 29.3307 182.073 29.716C182.073 30.6907 181.586 31.6767 180.611 32.674C179.637 33.6713 178.787 34.17 178.061 34.17C176.429 34.17 174.582 34.1133 172.519 34C170.479 33.8867 169.21 33.83 168.711 33.83C168.077 33.83 167.283 33.8867 166.331 34C165.379 34.0907 164.631 34.136 164.087 34.136C163.611 34.136 163.373 34.0227 163.373 33.796C163.373 33.592 163.373 33.456 163.373 33.388C163.373 33.32 163.407 33.2633 163.475 33.218C163.543 33.1727 163.611 33.15 163.679 33.15C163.77 33.1273 163.917 33.082 164.121 33.014C164.348 32.946 164.586 32.8553 164.835 32.742C165.379 32.47 165.731 31.9373 165.889 31.144C166.071 30.3507 166.161 28.6847 166.161 26.146V21.93C166.161 21.318 166.173 20.366 166.195 19.074C166.241 17.782 166.263 16.7733 166.263 16.048C166.263 15.436 166.241 14.4047 166.195 12.954C166.173 12.2967 165.889 11.7867 165.345 11.424C164.801 11.0613 164.167 10.8687 163.441 10.846C163.079 10.846 162.897 10.642 162.897 10.234ZM191.237 10.336C191.237 9.97333 191.565 9.792 192.223 9.792H197.867C198.388 9.792 198.989 9.78067 199.669 9.758C200.349 9.71267 200.881 9.69 201.267 9.69C203.307 9.69 205.052 10.2113 206.503 11.254C207.953 12.274 208.679 13.6567 208.679 15.402C208.679 16.558 208.452 17.578 207.999 18.462C207.568 19.3233 207.081 19.9467 206.537 20.332C206.015 20.7173 205.528 21.0573 205.075 21.352C204.644 21.624 204.429 21.8053 204.429 21.896C204.429 22.168 205.381 23.6413 207.285 26.316C209.189 28.968 210.492 30.668 211.195 31.416C212.056 32.4813 213.099 33.014 214.323 33.014C214.64 33.014 214.799 33.15 214.799 33.422C214.799 33.762 214.663 33.9887 214.391 34.102C214.119 34.2153 213.416 34.272 212.283 34.272C211.217 34.272 210.243 34.0113 209.359 33.49C208.225 32.8327 206.31 30.294 203.613 25.874C203.454 25.6247 203.341 25.4433 203.273 25.33C202.185 23.562 201.346 22.678 200.757 22.678H200.043H197.969C197.697 22.678 197.527 22.7913 197.459 23.018C197.413 23.2447 197.391 23.936 197.391 25.092C197.391 26.18 197.391 27.0753 197.391 27.778C197.391 28.4807 197.391 28.934 197.391 29.138C197.413 29.3193 197.425 29.478 197.425 29.614C197.425 29.7273 197.425 29.818 197.425 29.886C197.425 30.8153 197.64 31.5407 198.071 32.062C198.501 32.5607 198.977 32.8553 199.499 32.946C200.043 33.014 200.53 33.1047 200.961 33.218C201.391 33.3087 201.607 33.4673 201.607 33.694C201.607 34.0567 201.403 34.238 200.995 34.238C200.972 34.238 200.19 34.1927 198.649 34.102C197.107 34.034 196.269 34 196.133 34C195.475 34 194.693 34.0227 193.787 34.068C192.88 34.1133 192.415 34.136 192.393 34.136C191.917 34.136 191.679 33.9547 191.679 33.592C191.679 33.3427 191.826 33.1727 192.121 33.082C192.415 32.9687 192.744 32.8893 193.107 32.844C193.469 32.7987 193.798 32.5493 194.093 32.096C194.387 31.6427 194.535 30.9967 194.535 30.158C194.535 29.5687 194.535 27.982 194.535 25.398C194.557 22.814 194.569 20.8307 194.569 19.448C194.569 18.0427 194.557 16.762 194.535 15.606C194.535 14.4273 194.535 13.7927 194.535 13.702C194.535 12.8633 194.365 12.2287 194.025 11.798C193.685 11.3447 193.299 11.0953 192.869 11.05C192.461 10.982 192.087 10.9027 191.747 10.812C191.407 10.7213 191.237 10.5627 191.237 10.336ZM197.391 15.776C197.391 18.1107 197.402 19.5613 197.425 20.128C197.447 20.672 197.527 20.9893 197.663 21.08C198.003 21.284 198.49 21.386 199.125 21.386H199.465H200.451C202.377 21.386 203.749 20.944 204.565 20.06C205.403 19.176 205.823 18.0427 205.823 16.66C205.823 15.2547 205.267 13.974 204.157 12.818C203.069 11.662 201.414 11.084 199.193 11.084C198.354 11.084 197.844 11.3107 197.663 11.764C197.481 12.1947 197.391 13.2147 197.391 14.824V15.776Z" fill="white"/>
<path d="M61.22 45.355C61.22 45.245 61.3227 45.19 61.528 45.19C61.6013 45.19 61.77 45.1973 62.034 45.212C62.298 45.2267 62.5437 45.234 62.771 45.234C62.9103 45.234 63.0423 45.2303 63.167 45.223C63.299 45.2157 63.4897 45.212 63.739 45.212C63.937 45.212 64.036 45.2633 64.036 45.366C64.036 45.4247 63.8673 45.5237 63.53 45.663C63.2953 45.7583 63.178 46.18 63.178 46.928C63.178 47.918 63.1707 48.7943 63.156 49.557C63.1487 50.3123 63.145 50.7927 63.145 50.998C63.145 51.614 63.2367 52.0577 63.42 52.329C63.5813 52.5563 63.7573 52.67 63.948 52.67C63.9627 52.67 63.9993 52.6737 64.058 52.681C64.1167 52.681 64.1533 52.681 64.168 52.681C64.2193 52.681 64.2707 52.6957 64.322 52.725C64.3733 52.747 64.399 52.7727 64.399 52.802C64.399 52.8827 64.377 52.9377 64.333 52.967C64.2963 52.989 64.2267 53 64.124 53C63.904 53 63.6987 52.9927 63.508 52.978C63.3247 52.9633 63.1817 52.956 63.079 52.956C62.8737 52.956 62.65 52.967 62.408 52.989C62.166 53.0037 61.9863 53.011 61.869 53.011C61.539 53.011 61.374 52.956 61.374 52.846C61.374 52.78 61.407 52.736 61.473 52.714C61.5463 52.6847 61.627 52.6663 61.715 52.659C61.803 52.6443 61.8947 52.5967 61.99 52.516C62.0853 52.428 62.1513 52.3033 62.188 52.142C62.2027 52.0907 62.2247 51.6763 62.254 50.899C62.2907 50.1143 62.309 49.5497 62.309 49.205V48.578C62.309 48.4827 62.309 48.303 62.309 48.039C62.3163 47.7677 62.32 47.5513 62.32 47.39V46.884C62.32 46.5613 62.3053 46.2937 62.276 46.081C62.254 45.905 62.155 45.7693 61.979 45.674C61.8103 45.5787 61.6343 45.5273 61.451 45.52C61.297 45.5127 61.22 45.4577 61.22 45.355ZM67.3594 45.355C67.3594 45.245 67.4254 45.19 67.5574 45.19C67.6014 45.19 67.7004 45.1973 67.8544 45.212C68.0157 45.2267 68.111 45.234 68.1404 45.234C68.2504 45.234 68.4007 45.2303 68.5914 45.223C68.782 45.2157 68.9067 45.212 68.9654 45.212C69.1047 45.212 69.1927 45.2633 69.2294 45.366C69.3174 45.5567 69.475 45.9013 69.7024 46.4C69.9297 46.8913 70.1094 47.2837 70.2414 47.577C70.3807 47.8703 70.5567 48.2443 70.7694 48.699C70.982 49.1537 71.1544 49.524 71.2864 49.81C71.4184 50.0887 71.554 50.371 71.6934 50.657C71.84 50.943 71.95 51.1557 72.0234 51.295C72.104 51.427 72.1554 51.493 72.1774 51.493C72.1994 51.493 72.2214 51.482 72.2434 51.46C72.2727 51.4307 72.2984 51.394 72.3204 51.35C72.3497 51.306 72.3717 51.262 72.3864 51.218C72.4084 51.174 72.434 51.119 72.4634 51.053C72.5 50.9797 72.5257 50.9247 72.5404 50.888L73.9594 47.962C74.1207 47.632 74.2637 47.335 74.3884 47.071C74.513 46.807 74.612 46.5943 74.6854 46.433C74.7587 46.2717 74.821 46.1323 74.8724 46.015C74.9237 45.8977 74.9604 45.8097 74.9824 45.751C75.0117 45.6923 75.03 45.6483 75.0374 45.619C75.052 45.5823 75.063 45.5567 75.0704 45.542C75.0777 45.52 75.085 45.5017 75.0924 45.487C75.0997 45.4723 75.1107 45.4393 75.1254 45.388C75.1474 45.3367 75.1657 45.3037 75.1804 45.289C75.2024 45.267 75.239 45.245 75.2904 45.223C75.349 45.201 75.4224 45.19 75.5104 45.19C75.6497 45.19 75.778 45.1937 75.8954 45.201C76.02 45.2083 76.207 45.212 76.4564 45.212C76.581 45.212 76.6434 45.2597 76.6434 45.355C76.6434 45.4283 76.6177 45.4833 76.5664 45.52C76.5224 45.5493 76.427 45.575 76.2804 45.597C76.097 45.619 75.9687 45.7107 75.8954 45.872C75.822 46.0333 75.7854 46.3413 75.7854 46.796C75.7854 47.786 75.8074 48.6843 75.8514 49.491C75.8954 50.2903 75.9174 50.7927 75.9174 50.998C75.9174 51.7313 75.976 52.2007 76.0934 52.406C76.2107 52.604 76.4564 52.703 76.8304 52.703C76.8817 52.703 76.9257 52.7213 76.9624 52.758C77.0064 52.7947 77.0284 52.8277 77.0284 52.857C77.0284 52.901 77.0247 52.934 77.0174 52.956C77.01 52.978 76.9954 52.9963 76.9734 53.011C76.9514 53.0257 76.9294 53.033 76.9074 53.033C76.8854 53.033 76.845 53.033 76.7864 53.033C76.5664 53.033 76.35 53.0257 76.1374 53.011C75.9247 52.9963 75.767 52.989 75.6644 52.989C75.459 52.989 75.2464 52.9963 75.0264 53.011C74.8064 53.033 74.6377 53.044 74.5204 53.044C74.3884 53.044 74.3224 52.9927 74.3224 52.89C74.3224 52.824 74.3517 52.7763 74.4104 52.747C74.469 52.7177 74.535 52.6993 74.6084 52.692C74.689 52.6847 74.7697 52.6407 74.8504 52.56C74.9384 52.472 75.0007 52.3437 75.0374 52.175C75.0667 52.0283 75.0814 51.7937 75.0814 51.471C75.0814 51.2363 75.074 50.954 75.0594 50.624C75.052 50.294 75.041 49.975 75.0264 49.667C75.0117 49.3517 74.997 49.0583 74.9824 48.787C74.9677 48.5083 74.9567 48.281 74.9494 48.105L74.9274 47.841C74.9274 47.5257 74.8944 47.368 74.8284 47.368C74.821 47.368 74.81 47.3717 74.7954 47.379C74.7807 47.3863 74.766 47.3973 74.7514 47.412C74.744 47.4267 74.733 47.4413 74.7184 47.456C74.7037 47.4707 74.689 47.4963 74.6744 47.533C74.6597 47.5623 74.645 47.588 74.6304 47.61C74.6157 47.632 74.5974 47.665 74.5754 47.709C74.5534 47.7457 74.535 47.7787 74.5204 47.808C74.5057 47.8373 74.4837 47.8777 74.4544 47.929C74.4324 47.9803 74.414 48.0243 74.3994 48.061L72.8704 51.152C72.6944 51.5113 72.5074 51.8963 72.3094 52.307C72.1774 52.5857 72.0967 52.7507 72.0674 52.802C72.038 52.846 72.0014 52.868 71.9574 52.868C71.8914 52.868 71.8364 52.8387 71.7924 52.78C71.7484 52.714 71.6824 52.5747 71.5944 52.362C71.5064 52.1493 71.4294 51.9733 71.3634 51.834C70.0214 49.106 69.332 47.7163 69.2954 47.665C69.2734 47.6357 69.2514 47.621 69.2294 47.621C69.1707 47.621 69.1414 47.7677 69.1414 48.061C69.134 48.633 69.1157 49.1977 69.0864 49.755C69.057 50.3123 69.0424 50.7157 69.0424 50.965V51.46C69.0424 51.6507 69.046 51.7973 69.0534 51.9C69.068 52.0027 69.0974 52.1237 69.1414 52.263C69.1927 52.395 69.2807 52.4977 69.4054 52.571C69.53 52.6443 69.6914 52.692 69.8894 52.714C69.926 52.714 69.959 52.7287 69.9884 52.758C70.025 52.78 70.0434 52.8057 70.0434 52.835C70.0434 52.9157 70.0324 52.9707 70.0104 53C69.9884 53.022 69.9444 53.033 69.8784 53.033C69.7317 53.033 69.5117 53.0257 69.2184 53.011C68.925 52.9963 68.7637 52.989 68.7344 52.989C68.7197 52.989 68.6134 52.9927 68.4154 53C68.2174 53.0147 68.023 53.022 67.8324 53.022C67.7737 53.022 67.7297 53.0183 67.7004 53.011C67.6784 53.0037 67.6564 52.989 67.6344 52.967C67.6124 52.9377 67.6014 52.8973 67.6014 52.846C67.6014 52.7873 67.6344 52.747 67.7004 52.725C67.7664 52.703 67.8397 52.692 67.9204 52.692C68.0084 52.6847 68.1037 52.626 68.2064 52.516C68.309 52.3987 68.386 52.23 68.4374 52.01C68.474 51.8487 68.518 51.2107 68.5694 50.096C68.6207 48.9813 68.6464 48.1563 68.6464 47.621C68.6464 46.8877 68.573 46.3817 68.4264 46.103C68.287 45.8243 67.979 45.63 67.5024 45.52C67.407 45.498 67.3594 45.443 67.3594 45.355ZM79.9978 45.355C79.9978 45.245 80.0638 45.19 80.1958 45.19C80.2398 45.19 80.3388 45.1973 80.4928 45.212C80.6541 45.2267 80.7494 45.234 80.7788 45.234C80.8888 45.234 81.0391 45.2303 81.2298 45.223C81.4204 45.2157 81.5451 45.212 81.6038 45.212C81.7431 45.212 81.8311 45.2633 81.8678 45.366C81.9558 45.5567 82.1134 45.9013 82.3408 46.4C82.5681 46.8913 82.7478 47.2837 82.8798 47.577C83.0191 47.8703 83.1951 48.2443 83.4078 48.699C83.6204 49.1537 83.7928 49.524 83.9248 49.81C84.0568 50.0887 84.1924 50.371 84.3318 50.657C84.4784 50.943 84.5884 51.1557 84.6618 51.295C84.7424 51.427 84.7938 51.493 84.8158 51.493C84.8378 51.493 84.8598 51.482 84.8818 51.46C84.9111 51.4307 84.9368 51.394 84.9588 51.35C84.9881 51.306 85.0101 51.262 85.0248 51.218C85.0468 51.174 85.0724 51.119 85.1018 51.053C85.1384 50.9797 85.1641 50.9247 85.1788 50.888L86.5978 47.962C86.7591 47.632 86.9021 47.335 87.0268 47.071C87.1514 46.807 87.2504 46.5943 87.3238 46.433C87.3971 46.2717 87.4594 46.1323 87.5108 46.015C87.5621 45.8977 87.5988 45.8097 87.6208 45.751C87.6501 45.6923 87.6684 45.6483 87.6758 45.619C87.6904 45.5823 87.7014 45.5567 87.7088 45.542C87.7161 45.52 87.7234 45.5017 87.7308 45.487C87.7381 45.4723 87.7491 45.4393 87.7638 45.388C87.7858 45.3367 87.8041 45.3037 87.8188 45.289C87.8408 45.267 87.8774 45.245 87.9288 45.223C87.9874 45.201 88.0608 45.19 88.1488 45.19C88.2881 45.19 88.4164 45.1937 88.5338 45.201C88.6584 45.2083 88.8454 45.212 89.0948 45.212C89.2194 45.212 89.2818 45.2597 89.2818 45.355C89.2818 45.4283 89.2561 45.4833 89.2048 45.52C89.1608 45.5493 89.0654 45.575 88.9188 45.597C88.7354 45.619 88.6071 45.7107 88.5338 45.872C88.4604 46.0333 88.4238 46.3413 88.4238 46.796C88.4238 47.786 88.4458 48.6843 88.4898 49.491C88.5338 50.2903 88.5558 50.7927 88.5558 50.998C88.5558 51.7313 88.6144 52.2007 88.7318 52.406C88.8491 52.604 89.0948 52.703 89.4688 52.703C89.5201 52.703 89.5641 52.7213 89.6008 52.758C89.6448 52.7947 89.6668 52.8277 89.6668 52.857C89.6668 52.901 89.6631 52.934 89.6558 52.956C89.6484 52.978 89.6338 52.9963 89.6118 53.011C89.5898 53.0257 89.5678 53.033 89.5458 53.033C89.5238 53.033 89.4834 53.033 89.4248 53.033C89.2048 53.033 88.9884 53.0257 88.7758 53.011C88.5631 52.9963 88.4054 52.989 88.3028 52.989C88.0974 52.989 87.8848 52.9963 87.6648 53.011C87.4448 53.033 87.2761 53.044 87.1588 53.044C87.0268 53.044 86.9608 52.9927 86.9608 52.89C86.9608 52.824 86.9901 52.7763 87.0488 52.747C87.1074 52.7177 87.1734 52.6993 87.2468 52.692C87.3274 52.6847 87.4081 52.6407 87.4888 52.56C87.5768 52.472 87.6391 52.3437 87.6758 52.175C87.7051 52.0283 87.7198 51.7937 87.7198 51.471C87.7198 51.2363 87.7124 50.954 87.6978 50.624C87.6904 50.294 87.6794 49.975 87.6648 49.667C87.6501 49.3517 87.6354 49.0583 87.6208 48.787C87.6061 48.5083 87.5951 48.281 87.5878 48.105L87.5658 47.841C87.5658 47.5257 87.5328 47.368 87.4668 47.368C87.4594 47.368 87.4484 47.3717 87.4338 47.379C87.4191 47.3863 87.4044 47.3973 87.3898 47.412C87.3824 47.4267 87.3714 47.4413 87.3568 47.456C87.3421 47.4707 87.3274 47.4963 87.3128 47.533C87.2981 47.5623 87.2834 47.588 87.2688 47.61C87.2541 47.632 87.2358 47.665 87.2138 47.709C87.1918 47.7457 87.1734 47.7787 87.1588 47.808C87.1441 47.8373 87.1221 47.8777 87.0928 47.929C87.0708 47.9803 87.0524 48.0243 87.0378 48.061L85.5088 51.152C85.3328 51.5113 85.1458 51.8963 84.9478 52.307C84.8158 52.5857 84.7351 52.7507 84.7058 52.802C84.6764 52.846 84.6398 52.868 84.5958 52.868C84.5298 52.868 84.4748 52.8387 84.4308 52.78C84.3868 52.714 84.3208 52.5747 84.2328 52.362C84.1448 52.1493 84.0678 51.9733 84.0018 51.834C82.6598 49.106 81.9704 47.7163 81.9338 47.665C81.9118 47.6357 81.8898 47.621 81.8678 47.621C81.8091 47.621 81.7798 47.7677 81.7798 48.061C81.7724 48.633 81.7541 49.1977 81.7248 49.755C81.6954 50.3123 81.6808 50.7157 81.6808 50.965V51.46C81.6808 51.6507 81.6844 51.7973 81.6918 51.9C81.7064 52.0027 81.7358 52.1237 81.7798 52.263C81.8311 52.395 81.9191 52.4977 82.0438 52.571C82.1684 52.6443 82.3298 52.692 82.5278 52.714C82.5644 52.714 82.5974 52.7287 82.6268 52.758C82.6634 52.78 82.6818 52.8057 82.6818 52.835C82.6818 52.9157 82.6708 52.9707 82.6488 53C82.6268 53.022 82.5828 53.033 82.5168 53.033C82.3701 53.033 82.1501 53.0257 81.8568 53.011C81.5634 52.9963 81.4021 52.989 81.3728 52.989C81.3581 52.989 81.2518 52.9927 81.0538 53C80.8558 53.0147 80.6614 53.022 80.4708 53.022C80.4121 53.022 80.3681 53.0183 80.3388 53.011C80.3168 53.0037 80.2948 52.989 80.2728 52.967C80.2508 52.9377 80.2398 52.8973 80.2398 52.846C80.2398 52.7873 80.2728 52.747 80.3388 52.725C80.4048 52.703 80.4781 52.692 80.5588 52.692C80.6468 52.6847 80.7421 52.626 80.8448 52.516C80.9474 52.3987 81.0244 52.23 81.0758 52.01C81.1124 51.8487 81.1564 51.2107 81.2078 50.096C81.2591 48.9813 81.2848 48.1563 81.2848 47.621C81.2848 46.8877 81.2114 46.3817 81.0648 46.103C80.9254 45.8243 80.6174 45.63 80.1408 45.52C80.0454 45.498 79.9978 45.443 79.9978 45.355ZM92.739 49.271C92.739 48.039 93.1094 47.0307 93.85 46.246C94.5907 45.454 95.6394 45.058 96.996 45.058C97.6267 45.058 98.195 45.1497 98.701 45.333C99.207 45.5163 99.6067 45.7437 99.9 46.015C100.193 46.279 100.439 46.5833 100.637 46.928C100.835 47.2727 100.971 47.5917 101.044 47.885C101.117 48.171 101.154 48.4387 101.154 48.688C101.154 49.6853 100.96 50.5287 100.571 51.218C100.182 51.9 99.669 52.3987 99.031 52.714C98.4004 53.022 97.6707 53.176 96.842 53.176C95.9694 53.176 95.214 52.9853 94.576 52.604C93.9454 52.2227 93.4797 51.7423 93.179 51.163C92.8857 50.5837 92.739 49.953 92.739 49.271ZM93.707 48.71C93.707 49.0033 93.7474 49.3223 93.828 49.667C93.9087 50.0043 94.0407 50.3563 94.224 50.723C94.4074 51.0823 94.6274 51.4087 94.884 51.702C95.148 51.988 95.478 52.2263 95.874 52.417C96.2774 52.6003 96.7174 52.692 97.194 52.692C97.4434 52.692 97.7037 52.6553 97.975 52.582C98.2537 52.5013 98.5287 52.3803 98.8 52.219C99.0714 52.0577 99.3134 51.8633 99.526 51.636C99.7387 51.4013 99.911 51.119 100.043 50.789C100.182 50.4517 100.252 50.0887 100.252 49.7C100.252 48.3727 99.9037 47.3423 99.207 46.609C98.5104 45.8683 97.6487 45.498 96.622 45.498C95.8154 45.498 95.126 45.7693 94.554 46.312C93.9894 46.8547 93.707 47.654 93.707 48.71ZM104.383 45.366C104.383 45.256 104.416 45.201 104.482 45.201C104.504 45.201 104.552 45.2047 104.625 45.212C104.698 45.212 104.797 45.212 104.922 45.212C105.069 45.212 105.358 45.212 105.791 45.212C106.231 45.2047 106.477 45.201 106.528 45.201C106.697 45.201 106.909 45.1973 107.166 45.19C107.423 45.1753 107.613 45.168 107.738 45.168C108.405 45.168 108.963 45.3293 109.41 45.652C109.857 45.9673 110.081 46.4183 110.081 47.005C110.081 47.2177 110.041 47.4193 109.96 47.61C109.887 47.7933 109.795 47.9437 109.685 48.061C109.582 48.1783 109.476 48.281 109.366 48.369C109.263 48.4497 109.172 48.5157 109.091 48.567C109.018 48.611 108.981 48.6367 108.981 48.644C108.981 48.666 109.043 48.6953 109.168 48.732C109.293 48.7613 109.443 48.8163 109.619 48.897C109.795 48.9703 109.967 49.073 110.136 49.205C110.312 49.337 110.462 49.535 110.587 49.799C110.712 50.0557 110.774 50.36 110.774 50.712C110.774 51.0273 110.682 51.3647 110.499 51.724C110.316 52.0833 110.099 52.3473 109.85 52.516C109.527 52.7433 109.227 52.8973 108.948 52.978C108.669 53.0513 108.332 53.088 107.936 53.088C107.643 53.088 107.254 53.066 106.77 53.022C106.286 52.9853 106.018 52.967 105.967 52.967C105.886 52.967 105.74 52.9743 105.527 52.989C105.322 53.0037 105.153 53.011 105.021 53.011H104.867C104.713 53.011 104.636 52.956 104.636 52.846C104.636 52.7433 104.676 52.692 104.757 52.692C104.801 52.692 104.849 52.692 104.9 52.692C104.951 52.6847 104.988 52.681 105.01 52.681C105.076 52.681 105.138 52.659 105.197 52.615C105.263 52.5637 105.329 52.4573 105.395 52.296C105.461 52.1273 105.498 51.9147 105.505 51.658C105.527 51.1813 105.538 50.0373 105.538 48.226V46.356C105.538 46.3047 105.527 46.246 105.505 46.18C105.49 46.1067 105.454 46.015 105.395 45.905C105.344 45.7877 105.245 45.6923 105.098 45.619C104.959 45.5383 104.783 45.498 104.57 45.498C104.445 45.498 104.383 45.454 104.383 45.366ZM106.374 51.988C106.374 52.428 106.733 52.648 107.452 52.648H107.705C108.101 52.648 108.416 52.6297 108.651 52.593C108.996 52.5343 109.278 52.3547 109.498 52.054C109.725 51.7533 109.839 51.394 109.839 50.976C109.839 50.6167 109.773 50.3087 109.641 50.052C109.509 49.788 109.359 49.59 109.19 49.458C109.021 49.326 108.82 49.2233 108.585 49.15C108.358 49.0767 108.178 49.0327 108.046 49.018C107.921 49.0033 107.8 48.996 107.683 48.996C107.448 48.996 107.254 48.996 107.1 48.996C106.953 48.9887 106.858 48.985 106.814 48.985C106.777 48.985 106.744 48.985 106.715 48.985C106.693 48.9777 106.675 48.974 106.66 48.974C106.594 48.974 106.546 48.985 106.517 49.007C106.488 49.0217 106.458 49.0913 106.429 49.216C106.407 49.3333 106.392 49.5057 106.385 49.733C106.385 49.9603 106.385 50.3013 106.385 50.756V50.844C106.385 51.1153 106.385 51.3353 106.385 51.504C106.385 51.6727 106.381 51.7937 106.374 51.867C106.374 51.933 106.374 51.9733 106.374 51.988ZM106.44 47.005C106.44 47.3717 106.44 47.6577 106.44 47.863C106.447 48.0683 106.458 48.226 106.473 48.336C106.488 48.446 106.502 48.5157 106.517 48.545C106.532 48.5743 106.554 48.589 106.583 48.589C106.788 48.611 106.975 48.622 107.144 48.622H107.848C108.31 48.622 108.655 48.501 108.882 48.259C109.117 48.017 109.234 47.7053 109.234 47.324C109.234 46.9133 109.04 46.5173 108.651 46.136C108.27 45.7473 107.723 45.553 107.012 45.553C106.785 45.553 106.631 45.6227 106.55 45.762C106.477 45.894 106.44 46.202 106.44 46.686V47.005ZM113.842 45.355C113.842 45.245 113.944 45.19 114.15 45.19C114.223 45.19 114.392 45.1973 114.656 45.212C114.92 45.2267 115.165 45.234 115.393 45.234C115.532 45.234 115.664 45.2303 115.789 45.223C115.921 45.2157 116.111 45.212 116.361 45.212C116.559 45.212 116.658 45.2633 116.658 45.366C116.658 45.4247 116.489 45.5237 116.152 45.663C115.917 45.7583 115.8 46.18 115.8 46.928C115.8 47.918 115.792 48.7943 115.778 49.557C115.77 50.3123 115.767 50.7927 115.767 50.998C115.767 51.614 115.858 52.0577 116.042 52.329C116.203 52.5563 116.379 52.67 116.57 52.67C116.584 52.67 116.621 52.6737 116.68 52.681C116.738 52.681 116.775 52.681 116.79 52.681C116.841 52.681 116.892 52.6957 116.944 52.725C116.995 52.747 117.021 52.7727 117.021 52.802C117.021 52.8827 116.999 52.9377 116.955 52.967C116.918 52.989 116.848 53 116.746 53C116.526 53 116.32 52.9927 116.13 52.978C115.946 52.9633 115.803 52.956 115.701 52.956C115.495 52.956 115.272 52.967 115.03 52.989C114.788 53.0037 114.608 53.011 114.491 53.011C114.161 53.011 113.996 52.956 113.996 52.846C113.996 52.78 114.029 52.736 114.095 52.714C114.168 52.6847 114.249 52.6663 114.337 52.659C114.425 52.6443 114.516 52.5967 114.612 52.516C114.707 52.428 114.773 52.3033 114.81 52.142C114.824 52.0907 114.846 51.6763 114.876 50.899C114.912 50.1143 114.931 49.5497 114.931 49.205V48.578C114.931 48.4827 114.931 48.303 114.931 48.039C114.938 47.7677 114.942 47.5513 114.942 47.39V46.884C114.942 46.5613 114.927 46.2937 114.898 46.081C114.876 45.905 114.777 45.7693 114.601 45.674C114.432 45.5787 114.256 45.5273 114.073 45.52C113.919 45.5127 113.842 45.4577 113.842 45.355ZM119.981 45.355C119.981 45.223 120.08 45.157 120.278 45.157C120.307 45.157 120.355 45.1607 120.421 45.168C120.487 45.1753 120.538 45.179 120.575 45.179C120.648 45.179 120.784 45.1863 120.982 45.201C121.187 45.2157 121.371 45.223 121.532 45.223C121.759 45.223 122.001 45.2157 122.258 45.201C122.515 45.1863 122.658 45.179 122.687 45.179C122.812 45.179 122.874 45.2157 122.874 45.289C122.874 45.3917 122.83 45.4613 122.742 45.498C122.654 45.5273 122.555 45.5493 122.445 45.564C122.342 45.5713 122.24 45.652 122.137 45.806C122.042 45.9527 121.987 46.1763 121.972 46.477C121.957 46.763 121.939 47.5623 121.917 48.875C121.895 50.1877 121.884 50.921 121.884 51.075V51.515C121.884 52.043 121.972 52.3327 122.148 52.384C122.331 52.4427 122.489 52.472 122.621 52.472C123.171 52.472 123.651 52.4463 124.062 52.395C124.48 52.3437 124.792 52.2813 124.997 52.208C125.21 52.1273 125.386 52.043 125.525 51.955C125.664 51.8597 125.752 51.7753 125.789 51.702C125.833 51.6213 125.873 51.5553 125.91 51.504C125.954 51.4527 125.998 51.427 126.042 51.427C126.13 51.427 126.174 51.4893 126.174 51.614C126.174 51.9293 126.016 52.2483 125.701 52.571C125.386 52.8937 125.111 53.055 124.876 53.055C124.348 53.055 123.75 53.0367 123.083 53C122.423 52.9633 122.012 52.945 121.851 52.945C121.646 52.945 121.407 52.9597 121.136 52.989C120.872 53.0183 120.652 53.033 120.476 53.033C120.263 53.033 120.157 52.989 120.157 52.901C120.157 52.8497 120.175 52.8093 120.212 52.78C120.256 52.7433 120.296 52.725 120.333 52.725C120.443 52.725 120.549 52.6883 120.652 52.615C120.784 52.5123 120.879 52.3253 120.938 52.054C120.997 51.7753 121.026 51.2437 121.026 50.459V49.095C121.026 48.897 121.03 48.589 121.037 48.171C121.052 47.753 121.059 47.4267 121.059 47.192C121.059 46.994 121.052 46.6603 121.037 46.191C121.03 45.9783 120.938 45.8133 120.762 45.696C120.586 45.5787 120.381 45.5163 120.146 45.509C120.073 45.509 120.025 45.498 120.003 45.476C119.988 45.4467 119.981 45.4063 119.981 45.355ZM129.139 45.355C129.139 45.245 129.242 45.19 129.447 45.19C129.52 45.19 129.689 45.1973 129.953 45.212C130.217 45.2267 130.463 45.234 130.69 45.234C130.829 45.234 130.961 45.2303 131.086 45.223C131.218 45.2157 131.409 45.212 131.658 45.212C131.856 45.212 131.955 45.2633 131.955 45.366C131.955 45.4247 131.786 45.5237 131.449 45.663C131.214 45.7583 131.097 46.18 131.097 46.928C131.097 47.918 131.09 48.7943 131.075 49.557C131.068 50.3123 131.064 50.7927 131.064 50.998C131.064 51.614 131.156 52.0577 131.339 52.329C131.5 52.5563 131.676 52.67 131.867 52.67C131.882 52.67 131.918 52.6737 131.977 52.681C132.036 52.681 132.072 52.681 132.087 52.681C132.138 52.681 132.19 52.6957 132.241 52.725C132.292 52.747 132.318 52.7727 132.318 52.802C132.318 52.8827 132.296 52.9377 132.252 52.967C132.215 52.989 132.146 53 132.043 53C131.823 53 131.618 52.9927 131.427 52.978C131.244 52.9633 131.101 52.956 130.998 52.956C130.793 52.956 130.569 52.967 130.327 52.989C130.085 53.0037 129.905 53.011 129.788 53.011C129.458 53.011 129.293 52.956 129.293 52.846C129.293 52.78 129.326 52.736 129.392 52.714C129.465 52.6847 129.546 52.6663 129.634 52.659C129.722 52.6443 129.814 52.5967 129.909 52.516C130.004 52.428 130.07 52.3033 130.107 52.142C130.122 52.0907 130.144 51.6763 130.173 50.899C130.21 50.1143 130.228 49.5497 130.228 49.205V48.578C130.228 48.4827 130.228 48.303 130.228 48.039C130.235 47.7677 130.239 47.5513 130.239 47.39V46.884C130.239 46.5613 130.224 46.2937 130.195 46.081C130.173 45.905 130.074 45.7693 129.898 45.674C129.729 45.5787 129.553 45.5273 129.37 45.52C129.216 45.5127 129.139 45.4577 129.139 45.355ZM135.278 45.311C135.278 45.2083 135.381 45.157 135.586 45.157C135.616 45.157 135.663 45.1607 135.729 45.168C135.795 45.1753 135.847 45.179 135.883 45.179C135.905 45.179 136.25 45.19 136.917 45.212C137.585 45.2267 138.135 45.234 138.567 45.234C138.721 45.234 139.099 45.2267 139.7 45.212C140.309 45.1973 140.665 45.19 140.767 45.19C140.907 45.19 140.976 45.2743 140.976 45.443C140.976 45.487 140.954 45.6337 140.91 45.883C140.866 46.125 140.844 46.3523 140.844 46.565C140.844 46.631 140.826 46.6897 140.789 46.741C140.753 46.785 140.712 46.807 140.668 46.807C140.558 46.807 140.503 46.73 140.503 46.576C140.503 46.378 140.441 46.1983 140.316 46.037C140.192 45.8757 140.038 45.7913 139.854 45.784C139.194 45.7327 138.688 45.707 138.336 45.707H138.05C137.669 45.707 137.445 45.7363 137.379 45.795C137.321 45.8463 137.284 46.0407 137.269 46.378C137.24 46.906 137.225 47.5183 137.225 48.215C137.225 48.5817 137.295 48.7687 137.434 48.776H137.709H138.171H138.512C138.952 48.776 139.246 48.7613 139.392 48.732C139.539 48.7027 139.671 48.6477 139.788 48.567C139.928 48.4717 140.012 48.336 140.041 48.16C140.063 48.0353 140.115 47.973 140.195 47.973C140.261 47.973 140.302 47.984 140.316 48.006C140.331 48.028 140.338 48.0757 140.338 48.149C140.338 48.2003 140.324 48.369 140.294 48.655C140.265 48.941 140.25 49.1573 140.25 49.304C140.25 49.4433 140.254 49.5753 140.261 49.7C140.276 49.8247 140.283 49.9163 140.283 49.975C140.283 50.1583 140.258 50.25 140.206 50.25C140.096 50.25 140.016 50.162 139.964 49.986C139.862 49.678 139.77 49.4983 139.689 49.447C139.535 49.3443 139.183 49.293 138.633 49.293C138.413 49.293 138.234 49.293 138.094 49.293C137.962 49.293 137.874 49.293 137.83 49.293C137.794 49.2857 137.761 49.282 137.731 49.282C137.709 49.282 137.687 49.282 137.665 49.282C137.365 49.282 137.214 49.3517 137.214 49.491C137.214 49.7037 137.211 49.9713 137.203 50.294C137.196 50.6093 137.192 50.8697 137.192 51.075V51.515C137.192 52.043 137.28 52.3327 137.456 52.384C137.64 52.4427 137.797 52.472 137.929 52.472C138.479 52.472 138.96 52.4463 139.37 52.395C139.788 52.3437 140.1 52.2813 140.305 52.208C140.518 52.1273 140.694 52.043 140.833 51.955C140.973 51.8597 141.061 51.7753 141.097 51.702C141.141 51.6213 141.182 51.5553 141.218 51.504C141.262 51.4527 141.306 51.427 141.35 51.427C141.438 51.427 141.482 51.4893 141.482 51.614C141.482 51.9293 141.325 52.2483 141.009 52.571C140.694 52.8937 140.419 53.055 140.184 53.055C139.656 53.055 139.059 53.0367 138.391 53C137.731 52.9633 137.321 52.945 137.159 52.945C136.954 52.945 136.697 52.9633 136.389 53C136.081 53.0293 135.839 53.044 135.663 53.044C135.509 53.044 135.432 53.0073 135.432 52.934C135.432 52.868 135.432 52.824 135.432 52.802C135.432 52.78 135.443 52.7617 135.465 52.747C135.487 52.7323 135.509 52.725 135.531 52.725C135.561 52.7177 135.608 52.703 135.674 52.681C135.748 52.659 135.825 52.6297 135.905 52.593C136.081 52.505 136.195 52.3327 136.246 52.076C136.305 51.8193 136.334 51.2803 136.334 50.459V49.095C136.334 48.897 136.338 48.589 136.345 48.171C136.36 47.753 136.367 47.4267 136.367 47.192C136.367 46.994 136.36 46.6603 136.345 46.191C136.338 45.9783 136.246 45.8133 136.07 45.696C135.894 45.5787 135.689 45.5163 135.454 45.509C135.337 45.509 135.278 45.443 135.278 45.311ZM144.447 45.344C144.447 45.2267 144.553 45.168 144.766 45.168H146.592C146.761 45.168 146.955 45.1643 147.175 45.157C147.395 45.1423 147.567 45.135 147.692 45.135C148.352 45.135 148.917 45.3037 149.386 45.641C149.855 45.971 150.09 46.4183 150.09 46.983C150.09 47.357 150.017 47.687 149.87 47.973C149.731 48.2517 149.573 48.4533 149.397 48.578C149.228 48.7027 149.071 48.8127 148.924 48.908C148.785 48.996 148.715 49.0547 148.715 49.084C148.715 49.172 149.023 49.6487 149.639 50.514C150.255 51.372 150.677 51.922 150.904 52.164C151.183 52.5087 151.52 52.681 151.916 52.681C152.019 52.681 152.07 52.725 152.07 52.813C152.07 52.923 152.026 52.9963 151.938 53.033C151.85 53.0697 151.623 53.088 151.256 53.088C150.911 53.088 150.596 53.0037 150.31 52.835C149.943 52.6223 149.324 51.801 148.451 50.371C148.4 50.2903 148.363 50.2317 148.341 50.195C147.989 49.623 147.718 49.337 147.527 49.337H147.296H146.625C146.537 49.337 146.482 49.3737 146.46 49.447C146.445 49.5203 146.438 49.744 146.438 50.118C146.438 50.47 146.438 50.7597 146.438 50.987C146.438 51.2143 146.438 51.361 146.438 51.427C146.445 51.4857 146.449 51.537 146.449 51.581C146.449 51.6177 146.449 51.647 146.449 51.669C146.449 51.9697 146.519 52.2043 146.658 52.373C146.797 52.5343 146.951 52.6297 147.12 52.659C147.296 52.681 147.454 52.7103 147.593 52.747C147.732 52.7763 147.802 52.8277 147.802 52.901C147.802 53.0183 147.736 53.077 147.604 53.077C147.597 53.077 147.344 53.0623 146.845 53.033C146.346 53.011 146.075 53 146.031 53C145.818 53 145.565 53.0073 145.272 53.022C144.979 53.0367 144.828 53.044 144.821 53.044C144.667 53.044 144.59 52.9853 144.59 52.868C144.59 52.7873 144.638 52.7323 144.733 52.703C144.828 52.6663 144.935 52.6407 145.052 52.626C145.169 52.6113 145.276 52.5307 145.371 52.384C145.466 52.2373 145.514 52.0283 145.514 51.757C145.514 51.5663 145.514 51.053 145.514 50.217C145.521 49.381 145.525 48.7393 145.525 48.292C145.525 47.8373 145.521 47.423 145.514 47.049C145.514 46.6677 145.514 46.4623 145.514 46.433C145.514 46.1617 145.459 45.9563 145.349 45.817C145.239 45.6703 145.114 45.5897 144.975 45.575C144.843 45.553 144.722 45.5273 144.612 45.498C144.502 45.4687 144.447 45.4173 144.447 45.344ZM146.438 47.104C146.438 47.8593 146.442 48.3287 146.449 48.512C146.456 48.688 146.482 48.7907 146.526 48.82C146.636 48.886 146.794 48.919 146.999 48.919H147.109H147.428C148.051 48.919 148.495 48.776 148.759 48.49C149.03 48.204 149.166 47.8373 149.166 47.39C149.166 46.9353 148.986 46.521 148.627 46.147C148.275 45.773 147.74 45.586 147.021 45.586C146.75 45.586 146.585 45.6593 146.526 45.806C146.467 45.9453 146.438 46.2753 146.438 46.796V47.104Z" fill="white"/>
</svg>
